<svg width="79" height="67" viewBox="0 0 79 67" fill="none" xmlns="http://www.w3.org/2000/svg">
<path d="M17.4757 65.8436C12.126 65.8436 7.84625 63.882 4.63642 59.9589C1.54547 55.9169 0 51.1616 0 45.693C0 41.1754 0.832178 36.9551 2.49653 33.032C4.16089 29.1089 6.24133 25.5424 8.73786 22.3325C11.3533 19.1227 14.0876 16.329 16.9408 13.9513C19.9128 11.4548 22.6471 9.37435 25.1437 7.71C27.6402 5.92676 29.6612 4.61905 31.2067 3.78688C32.871 2.9547 33.6437 2.53861 33.5249 2.53861L37.6263 8.06665C36.5564 8.54218 35.1298 9.49324 33.3465 10.9198C31.5633 12.2275 29.7801 13.8324 27.9968 15.7346C26.3325 17.6367 24.8464 19.7171 23.5387 21.9759C22.231 24.1158 21.5772 26.1962 21.5772 28.2172C21.5772 29.4061 22.2905 30.5949 23.7171 31.7837C25.1437 32.8536 26.6891 34.1614 28.3535 35.7068C30.0178 37.1334 31.5633 38.9167 32.9899 41.0565C34.4165 43.0775 35.1298 45.5741 35.1298 48.5461C35.1298 51.1616 34.5948 53.5392 33.5249 55.6791C32.5738 57.819 31.2661 59.6617 29.6017 61.2071C28.0563 62.6337 26.2136 63.7631 24.0737 64.5953C21.9338 65.4275 19.7345 65.8436 17.4757 65.8436ZM61.3434 66.2002C58.6091 66.2002 56.1125 65.6058 53.8538 64.417C51.595 63.2281 49.6334 61.6232 47.9691 59.6022C46.3047 57.5812 44.997 55.263 44.046 52.6476C43.2138 49.9133 42.7977 47.0007 42.7977 43.9097C42.7977 37.7278 44.1054 32.0215 46.7208 26.7906C49.4551 21.4409 52.4272 16.864 55.637 13.0597C59.4413 8.54218 63.7805 4.44073 68.6546 0.755371L73.826 5.57011C72.7561 6.28341 71.4484 7.41279 69.9029 8.95826C68.4763 10.5037 67.1092 12.3464 65.8015 14.4863C64.6126 16.5073 63.5427 18.6472 62.5916 20.906C61.7595 23.1647 61.3434 25.3641 61.3434 27.5039C61.3434 28.9305 62.235 30.1194 64.0182 31.0704C65.8015 32.0215 67.763 33.2103 69.9029 34.6369C72.0428 36.0635 74.0044 37.9062 75.7876 40.1649C77.5708 42.3048 78.4625 45.3363 78.4625 49.2594C78.4625 51.6371 77.9869 53.8364 77.0359 55.8574C76.0848 57.8784 74.7771 59.6617 73.1127 61.2071C71.5673 62.7526 69.7246 64.0009 67.5847 64.9519C65.5637 65.7841 63.4833 66.2002 61.3434 66.2002Z" fill="url(#paint0_linear)"/>
<defs>
<linearGradient id="paint0_linear" x1="79.1215" y1="66.1403" x2="-10.5134" y2="19.2535" gradientUnits="userSpaceOnUse">
<stop stop-color="#BCAED9"/>
<stop offset="0.3427" stop-color="#AABCE1"/>
<stop offset="1" stop-color="#7DDEF6"/>
</linearGradient>
</defs>
</svg>
