<svg width="44" height="44" viewBox="0 0 44 44" fill="none" xmlns="http://www.w3.org/2000/svg">
<path d="M32.2862 43.599H24.9637L21.62 42.4913L18.3003 43.599H10.9418C4.90166 43.599 0 38.6747 0 32.6065V11.1634C0 5.09524 4.90166 0.170898 10.9418 0.170898H32.2862C38.3264 0.170898 43.2281 5.09524 43.2281 11.1634V32.6065C43.2281 38.6747 38.3264 43.599 32.2862 43.599Z" fill="#337FFF"/>
<path d="M18.2763 17.1591V21.8788H12.8593V28.0794H18.2763V43.5868H24.9517V28.0794H29.9252L30.872 21.8788H24.9517V17.8574C24.9517 16.1598 25.7786 14.5103 28.4272 14.5103H31.1237V9.23683C31.1237 9.23683 28.6788 8.81543 26.3419 8.81543C21.4642 8.81543 18.2763 11.7773 18.2763 17.1591Z" fill="white"/>
</svg>
