<svg width="44" height="44" viewBox="0 0 44 44" fill="none" xmlns="http://www.w3.org/2000/svg">
<rect x="0.684204" y="0.170898" width="43.2281" height="43.5" rx="9" fill="#DB0C0B"/>
<path d="M17.6832 31.5322C12.3831 31.5322 8.0719 27.221 8.0719 21.9209C8.0719 16.6207 12.3831 12.3096 17.6832 12.3096C20.1044 12.3096 22.3054 13.1548 24.0546 14.7601L21.5483 17.1725C20.8175 16.4916 19.5673 15.7109 17.6832 15.7109C14.32 15.7109 11.5819 18.496 11.5819 21.9238C11.5819 25.3516 14.32 28.1367 17.6832 28.1367C21.4133 28.1367 22.9335 25.56 23.2416 24.0398L23.2945 23.7786H17.7713V20.6237H26.7692C26.8426 21.0522 26.9071 21.5276 26.9071 22.1439C26.9071 27.6701 23.1125 31.5322 17.6832 31.5322Z" fill="white"/>
<path d="M31.1596 25.9887V23.2182H28.3863V20.6239H31.1596V17.8506H33.754V20.6239H36.5244V23.2182H33.754V25.9887H31.1596Z" fill="white"/>
</svg>
