<svg width="44" height="44" viewBox="0 0 44 44" fill="none" xmlns="http://www.w3.org/2000/svg">
<path d="M32.5143 43.587H11.1699C5.12975 43.587 0.228088 38.6747 0.228088 32.5945V11.1634C0.228088 5.09524 5.12975 0.170898 11.1699 0.170898H32.5143C38.5545 0.170898 43.4562 5.09524 43.4562 11.1634V32.6065C43.4562 38.6747 38.5545 43.587 32.5143 43.587Z" fill="url(#paint0_linear)"/>
<path d="M28.4634 13.8364C27.6485 13.8364 27.0013 14.4986 27.0013 15.3053C27.0013 16.112 27.6605 16.7742 28.4634 16.7742C29.2784 16.7742 29.9256 16.112 29.9256 15.3053C29.9256 14.4986 29.2784 13.8364 28.4634 13.8364Z" fill="white"/>
<path d="M21.9439 15.7266C18.5403 15.7266 15.7839 18.5078 15.7839 21.9151C15.7839 25.3344 18.5523 28.1036 21.9439 28.1036C25.3475 28.1036 28.1039 25.3224 28.1039 21.9151C28.1039 18.5078 25.3355 15.7266 21.9439 15.7266ZM21.9439 25.8883C19.7627 25.8883 18.001 24.1064 18.001 21.9271C18.001 19.7359 19.7747 17.966 21.9439 17.966C24.1251 17.966 25.8868 19.7479 25.8868 21.9271C25.8868 24.1064 24.1251 25.8883 21.9439 25.8883Z" fill="white"/>
<path d="M26.8336 34.4968H16.8386C12.6919 34.4968 9.32428 31.1136 9.32428 26.9478V16.9065C9.32428 12.7407 12.6919 9.35742 16.8386 9.35742H26.8336C30.9803 9.35742 34.3479 12.7407 34.3479 16.9065V26.9478C34.3599 31.1136 30.9803 34.4968 26.8336 34.4968ZM16.8386 11.7173C13.9862 11.7173 11.6732 14.041 11.6732 16.9065V26.9478C11.6732 29.8133 13.9862 32.137 16.8386 32.137H26.8336C29.6859 32.137 31.9989 29.8133 31.9989 26.9478V16.9065C31.9989 14.041 29.6859 11.7173 26.8336 11.7173H16.8386Z" fill="white"/>
<defs>
<linearGradient id="paint0_linear" x1="-0.243742" y1="-0.306003" x2="42.3526" y2="42.094" gradientUnits="userSpaceOnUse">
<stop offset="0.0011048" stop-color="#FBE18A"/>
<stop offset="0.2094" stop-color="#FCBB45"/>
<stop offset="0.3765" stop-color="#F75274"/>
<stop offset="0.5238" stop-color="#D53692"/>
<stop offset="0.7394" stop-color="#8F39CE"/>
<stop offset="1" stop-color="#5B4FE9"/>
</linearGradient>
</defs>
</svg>
