<svg width="7" height="207" viewBox="0 0 7 207" fill="none" xmlns="http://www.w3.org/2000/svg">
<g clip-path="url(#clip0)">
<path d="M6.45693 0.0932617H0.932129V85.5818H6.45693V0.0932617Z" fill="#AFB42B"/>
<path d="M3.69453 92.2134C2.93101 92.2134 2.31333 91.5958 2.31333 90.8322C2.31333 90.0687 2.93101 89.4253 3.69453 89.4253C4.45805 89.4253 5.07573 90.0172 5.07573 90.7808V90.8237C5.07573 91.5958 4.45805 92.2134 3.69453 92.2134Z" fill="#6D6E71"/>
<path d="M3.69453 200.273C2.93101 200.273 2.31333 199.655 2.31333 198.892C2.31333 198.128 2.93101 197.468 3.69453 197.468C4.45805 197.468 5.07573 198.042 5.07573 198.806V198.892C5.07573 199.655 4.45805 200.273 3.69453 200.273ZM3.69453 193.916C2.93101 193.916 2.31333 193.298 2.31333 192.535C2.31333 191.771 2.93101 191.111 3.69453 191.111C4.45805 191.111 5.07573 191.686 5.07573 192.449V192.543C5.07573 193.298 4.45805 193.916 3.69453 193.916ZM3.69453 187.559C2.93101 187.559 2.31333 186.941 2.31333 186.178C2.31333 185.414 2.93101 184.754 3.69453 184.754C4.45805 184.754 5.07573 185.329 5.07573 186.092V186.186C5.07573 186.941 4.45805 187.559 3.69453 187.559ZM3.69453 181.202C2.93101 181.202 2.31333 180.584 2.31333 179.821C2.31333 179.057 2.93101 178.397 3.69453 178.397C4.45805 178.397 5.07573 178.972 5.07573 179.735V179.821C5.07573 180.584 4.45805 181.202 3.69453 181.202ZM3.69453 174.845C2.93101 174.845 2.31333 174.228 2.31333 173.464C2.31333 172.7 2.93101 172.04 3.69453 172.04C4.45805 172.04 5.07573 172.615 5.07573 173.378V173.464C5.07573 174.228 4.45805 174.845 3.69453 174.845ZM3.69453 168.488C2.93101 168.488 2.31333 167.871 2.31333 167.107C2.31333 166.344 2.93101 165.683 3.69453 165.683C4.45805 165.683 5.07573 166.258 5.07573 167.021V167.116C5.07573 167.871 4.45805 168.488 3.69453 168.488ZM3.69453 162.131C2.93101 162.131 2.31333 161.514 2.31333 160.75C2.31333 159.987 2.93101 159.326 3.69453 159.326C4.45805 159.326 5.07573 159.901 5.07573 160.664V160.75C5.07573 161.514 4.45805 162.131 3.69453 162.131ZM3.69453 155.774C2.93101 155.774 2.31333 155.157 2.31333 154.393C2.31333 153.63 2.93101 152.969 3.69453 152.969C4.45805 152.969 5.07573 153.544 5.07573 154.307V154.393C5.07573 155.157 4.45805 155.774 3.69453 155.774ZM3.69453 149.426C2.93101 149.426 2.31333 148.808 2.31333 148.045C2.31333 147.281 2.93101 146.621 3.69453 146.621C4.45805 146.621 5.07573 147.195 5.07573 147.959V148.053C5.07573 148.8 4.45805 149.426 3.69453 149.426ZM3.69453 143.069C2.93101 143.069 2.31333 142.451 2.31333 141.688C2.31333 140.924 2.93101 140.264 3.69453 140.264C4.45805 140.264 5.07573 140.839 5.07573 141.602V141.688C5.07573 142.443 4.45805 143.069 3.69453 143.069ZM3.69453 136.712C2.93101 136.712 2.31333 136.094 2.31333 135.331C2.31333 134.567 2.93101 133.907 3.69453 133.907C4.45805 133.907 5.07573 134.482 5.07573 135.245V135.331C5.07573 136.086 4.45805 136.712 3.69453 136.712ZM3.69453 130.355C2.93101 130.355 2.31333 129.737 2.31333 128.974C2.31333 128.21 2.93101 127.55 3.69453 127.55C4.45805 127.55 5.07573 128.125 5.07573 128.888V128.974C5.07573 129.729 4.45805 130.355 3.69453 130.355ZM3.69453 123.998C2.93101 123.998 2.31333 123.381 2.31333 122.617C2.31333 121.854 2.93101 121.193 3.69453 121.193C4.45805 121.193 5.07573 121.768 5.07573 122.531V122.617C5.07573 123.381 4.45805 123.998 3.69453 123.998ZM3.69453 117.641C2.93101 117.641 2.31333 117.024 2.31333 116.26C2.31333 115.497 2.93101 114.836 3.69453 114.836C4.45805 114.836 5.07573 115.411 5.07573 116.174V116.26C5.07573 117.024 4.45805 117.641 3.69453 117.641ZM3.69453 111.284C2.93101 111.284 2.31333 110.667 2.31333 109.903C2.31333 109.14 2.93101 108.479 3.69453 108.479C4.45805 108.479 5.07573 109.054 5.07573 109.817V109.903C5.07573 110.667 4.45805 111.284 3.69453 111.284ZM3.69453 104.927C2.93101 104.927 2.31333 104.31 2.31333 103.546C2.31333 102.783 2.93101 102.122 3.69453 102.122C4.45805 102.122 5.07573 102.697 5.07573 103.46V103.546C5.07573 104.31 4.45805 104.927 3.69453 104.927ZM3.69453 98.5704C2.93101 98.5704 2.31333 97.9528 2.31333 97.1892C2.31333 96.4257 2.93101 95.7651 3.69453 95.7651C4.45805 95.7651 5.07573 96.3399 5.07573 97.1034V97.1978C5.07573 97.9528 4.45805 98.5704 3.69453 98.5704Z" fill="#6D6E71"/>
<path d="M3.69453 206.587C2.93101 206.587 2.31333 205.969 2.31333 205.206C2.31333 204.442 2.93101 203.799 3.69453 203.799C4.45805 203.799 5.07573 204.391 5.07573 205.154V205.197C5.07573 205.969 4.45805 206.587 3.69453 206.587Z" fill="#6D6E71"/>
</g>
<defs>
<clipPath id="clip0">
<rect width="5.5248" height="206.494" fill="white" transform="translate(0.932129 0.0932617)"/>
</clipPath>
</defs>
</svg>
