<svg width="7" height="254" viewBox="0 0 7 254" fill="none" xmlns="http://www.w3.org/2000/svg">
<path d="M6.16261 0.648438H0.637817V85.4764H6.16261V0.648438Z" fill="#FBC02D"/>
<path d="M3.40022 92.108C2.6367 92.108 2.01902 91.4903 2.01902 90.7268C2.01902 89.9632 2.6367 89.3198 3.40022 89.3198C4.16374 89.3198 4.78142 89.9118 4.78142 90.6753V90.7268C4.78142 91.4903 4.16374 92.108 3.40022 92.108Z" fill="#6D6E71"/>
<path d="M3.40022 172.86C2.6367 172.86 2.01902 172.243 2.01902 171.479V171.385C2.01902 170.621 2.6367 170.004 3.40022 170.004C4.16374 170.004 4.78142 170.621 4.78142 171.385V171.479C4.78142 172.243 4.16374 172.86 3.40022 172.86ZM3.40022 166.135C2.6367 166.135 2.01902 165.517 2.01902 164.753V164.659C2.01902 163.896 2.6367 163.278 3.40022 163.278C4.16374 163.278 4.78142 163.896 4.78142 164.659V164.753C4.78142 165.517 4.16374 166.135 3.40022 166.135ZM3.40022 159.4C2.6367 159.4 2.01902 158.783 2.01902 158.019V157.925C2.01902 157.161 2.6367 156.543 3.40022 156.543C4.16374 156.543 4.78142 157.161 4.78142 157.925V158.019C4.78142 158.783 4.16374 159.4 3.40022 159.4ZM3.40022 152.674C2.6367 152.674 2.01902 152.057 2.01902 151.293V151.199C2.01902 150.435 2.6367 149.818 3.40022 149.818C4.16374 149.818 4.78142 150.435 4.78142 151.199V151.293C4.78142 152.057 4.16374 152.674 3.40022 152.674ZM3.40022 145.94C2.6367 145.94 2.01902 145.322 2.01902 144.559V144.464C2.01902 143.701 2.6367 143.083 3.40022 143.083C4.16374 143.083 4.78142 143.701 4.78142 144.464V144.559C4.78142 145.322 4.16374 145.94 3.40022 145.94ZM3.40022 139.214C2.6367 139.214 2.01902 138.596 2.01902 137.833V137.739C2.01902 136.975 2.6367 136.357 3.40022 136.357C4.16374 136.357 4.78142 136.975 4.78142 137.739V137.833C4.78142 138.596 4.16374 139.214 3.40022 139.214ZM3.40022 132.48C2.6367 132.48 2.01902 131.862 2.01902 131.098V131.004C2.01902 130.241 2.6367 129.623 3.40022 129.623C4.16374 129.623 4.78142 130.241 4.78142 131.004V131.098C4.78142 131.862 4.16374 132.48 3.40022 132.48ZM3.40022 125.754C2.6367 125.754 2.01902 125.136 2.01902 124.373V124.278C2.01902 123.515 2.6367 122.897 3.40022 122.897C4.16374 122.897 4.78142 123.515 4.78142 124.278V124.373C4.78142 125.136 4.16374 125.754 3.40022 125.754ZM3.40022 119.019C2.6367 119.019 2.01902 118.402 2.01902 117.638V117.544C2.01902 116.78 2.6367 116.163 3.40022 116.163C4.16374 116.163 4.78142 116.78 4.78142 117.544V117.638C4.78142 118.402 4.16374 119.019 3.40022 119.019ZM3.40022 112.294C2.6367 112.294 2.01902 111.676 2.01902 110.912V110.818C2.01902 110.054 2.6367 109.437 3.40022 109.437C4.16374 109.437 4.78142 110.054 4.78142 110.818V110.912C4.78142 111.676 4.16374 112.294 3.40022 112.294ZM3.40022 105.568C2.6367 105.568 2.01902 104.95 2.01902 104.187V104.092C2.01902 103.329 2.6367 102.711 3.40022 102.711C4.16374 102.711 4.78142 103.329 4.78142 104.092V104.187C4.78142 104.941 4.16374 105.568 3.40022 105.568ZM3.40022 98.8333C2.6367 98.8333 2.01902 98.2156 2.01902 97.4521V97.3578C2.01902 96.5942 2.6367 95.9766 3.40022 95.9766C4.16374 95.9766 4.78142 96.5942 4.78142 97.3578V97.4521C4.78142 98.2156 4.16374 98.8333 3.40022 98.8333Z" fill="#6D6E71"/>
<path d="M3.40022 179.544C2.6367 179.544 2.01902 178.926 2.01902 178.163C2.01902 177.399 2.6367 176.756 3.40022 176.756C4.16374 176.756 4.78142 177.348 4.78142 178.111V178.154C4.78142 178.926 4.16374 179.544 3.40022 179.544Z" fill="#6D6E71"/>
<path d="M3.40022 166.069C2.6367 166.069 2.01902 165.451 2.01902 164.688C2.01902 163.924 2.6367 163.281 3.40022 163.281C4.16374 163.281 4.78142 163.873 4.78142 164.636V164.688C4.78142 165.451 4.16374 166.069 3.40022 166.069Z" fill="#6D6E71"/>
<path d="M3.40022 246.822C2.6367 246.822 2.01902 246.204 2.01902 245.441V245.346C2.01902 244.583 2.6367 243.965 3.40022 243.965C4.16374 243.965 4.78142 244.583 4.78142 245.346V245.441C4.78142 246.204 4.16374 246.822 3.40022 246.822ZM3.40022 240.096C2.6367 240.096 2.01902 239.478 2.01902 238.715V238.62C2.01902 237.857 2.6367 237.239 3.40022 237.239C4.16374 237.239 4.78142 237.857 4.78142 238.62V238.715C4.78142 239.478 4.16374 240.096 3.40022 240.096ZM3.40022 233.362C2.6367 233.362 2.01902 232.744 2.01902 231.98V231.886C2.01902 231.123 2.6367 230.505 3.40022 230.505C4.16374 230.505 4.78142 231.123 4.78142 231.886V231.98C4.78142 232.744 4.16374 233.362 3.40022 233.362ZM3.40022 226.636C2.6367 226.636 2.01902 226.018 2.01902 225.255V225.16C2.01902 224.397 2.6367 223.779 3.40022 223.779C4.16374 223.779 4.78142 224.397 4.78142 225.16V225.255C4.78142 226.018 4.16374 226.636 3.40022 226.636ZM3.40022 219.901C2.6367 219.901 2.01902 219.284 2.01902 218.52V218.426C2.01902 217.662 2.6367 217.045 3.40022 217.045C4.16374 217.045 4.78142 217.662 4.78142 218.426V218.52C4.78142 219.284 4.16374 219.901 3.40022 219.901ZM3.40022 213.176C2.6367 213.176 2.01902 212.558 2.01902 211.794V211.7C2.01902 210.936 2.6367 210.319 3.40022 210.319C4.16374 210.319 4.78142 210.936 4.78142 211.7V211.794C4.78142 212.558 4.16374 213.176 3.40022 213.176ZM3.40022 206.441C2.6367 206.441 2.01902 205.823 2.01902 205.06V204.966C2.01902 204.202 2.6367 203.584 3.40022 203.584C4.16374 203.584 4.78142 204.202 4.78142 204.966V205.06C4.78142 205.823 4.16374 206.441 3.40022 206.441ZM3.40022 199.715C2.6367 199.715 2.01902 199.098 2.01902 198.334V198.24C2.01902 197.476 2.6367 196.859 3.40022 196.859C4.16374 196.859 4.78142 197.476 4.78142 198.24V198.334C4.78142 199.098 4.16374 199.715 3.40022 199.715ZM3.40022 192.981C2.6367 192.981 2.01902 192.363 2.01902 191.6V191.505C2.01902 190.742 2.6367 190.124 3.40022 190.124C4.16374 190.124 4.78142 190.742 4.78142 191.505V191.6C4.78142 192.363 4.16374 192.981 3.40022 192.981ZM3.40022 186.255C2.6367 186.255 2.01902 185.637 2.01902 184.874V184.779C2.01902 184.016 2.6367 183.398 3.40022 183.398C4.16374 183.398 4.78142 184.016 4.78142 184.779V184.874C4.78142 185.637 4.16374 186.255 3.40022 186.255ZM3.40022 179.529C2.6367 179.529 2.01902 178.911 2.01902 178.148V178.054C2.01902 177.29 2.6367 176.672 3.40022 176.672C4.16374 176.672 4.78142 177.29 4.78142 178.054V178.148C4.78142 178.903 4.16374 179.529 3.40022 179.529ZM3.40022 172.795C2.6367 172.795 2.01902 172.177 2.01902 171.414V171.319C2.01902 170.556 2.6367 169.938 3.40022 169.938C4.16374 169.938 4.78142 170.556 4.78142 171.319V171.414C4.78142 172.177 4.16374 172.795 3.40022 172.795Z" fill="#6D6E71"/>
<path d="M3.40022 253.505C2.6367 253.505 2.01902 252.887 2.01902 252.124C2.01902 251.36 2.6367 250.717 3.40022 250.717C4.16374 250.717 4.78142 251.309 4.78142 252.072V252.115C4.78142 252.887 4.16374 253.505 3.40022 253.505Z" fill="#6D6E71"/>
</svg>
