<svg width="7" height="193" viewBox="0 0 7 193" fill="none" xmlns="http://www.w3.org/2000/svg">
<g clip-path="url(#clip0)">
<path d="M6.03127 107.235H0.50647V192.355H6.03127V107.235Z" fill="#FF3D00"/>
<path d="M3.26935 3.18218C2.50583 3.18218 1.88815 2.5645 1.88815 1.80098C1.88815 1.03746 2.50583 0.394043 3.26935 0.394043C4.03287 0.394043 4.65055 0.985986 4.65055 1.74951V1.7924C4.65055 2.5645 4.03287 3.18218 3.26935 3.18218Z" fill="#6D6E71"/>
<path d="M3.26886 95.2935C2.50534 95.2935 1.88766 94.6758 1.88766 93.9123V93.8179C1.88766 93.0544 2.50534 92.4367 3.26886 92.4367C4.03238 92.4367 4.65006 93.0544 4.65006 93.8179V93.9037C4.65006 94.6672 4.03238 95.2935 3.26886 95.2935ZM3.26886 88.7135C2.50534 88.7135 1.88766 88.0958 1.88766 87.3323V87.2379C1.88766 86.4744 2.50534 85.8567 3.26886 85.8567C4.03238 85.8567 4.65006 86.4744 4.65006 87.2379V87.3323C4.65006 88.0872 4.03238 88.7135 3.26886 88.7135ZM3.26886 82.1335C2.50534 82.1335 1.88766 81.5158 1.88766 80.7523V80.6579C1.88766 79.8944 2.50534 79.2767 3.26886 79.2767C4.03238 79.2767 4.65006 79.8944 4.65006 80.6579V80.7523C4.65006 81.5158 4.03238 82.1335 3.26886 82.1335ZM3.26886 75.5535C2.50534 75.5535 1.88766 74.9358 1.88766 74.1723V74.0779C1.88766 73.3144 2.50534 72.6967 3.26886 72.6967C4.03238 72.6967 4.65006 73.3144 4.65006 74.0779V74.1723C4.65006 74.9358 4.03238 75.5535 3.26886 75.5535ZM3.26886 68.9735C2.50534 68.9735 1.88766 68.3558 1.88766 67.5923V67.4979C1.88766 66.7344 2.50534 66.1167 3.26886 66.1167C4.03238 66.1167 4.65006 66.7344 4.65006 67.4979V67.5923C4.65006 68.3558 4.03238 68.9735 3.26886 68.9735ZM3.26886 62.3935C2.50534 62.3935 1.88766 61.7758 1.88766 61.0123V60.9179C1.88766 60.1544 2.50534 59.5367 3.26886 59.5367C4.03238 59.5367 4.65006 60.1544 4.65006 60.9179V61.0123C4.65006 61.7758 4.03238 62.3935 3.26886 62.3935ZM3.26886 55.8135C2.50534 55.8135 1.88766 55.1958 1.88766 54.4323V54.3379C1.88766 53.5744 2.50534 52.9567 3.26886 52.9567C4.03238 52.9567 4.65006 53.5744 4.65006 54.3379V54.4323C4.65006 55.1958 4.03238 55.8135 3.26886 55.8135ZM3.26886 49.2335C2.50534 49.2335 1.88766 48.6158 1.88766 47.8523V47.7579C1.88766 46.9944 2.50534 46.3767 3.26886 46.3767C4.03238 46.3767 4.65006 46.9944 4.65006 47.7579V47.8523C4.65006 48.6158 4.03238 49.2335 3.26886 49.2335ZM3.26886 42.6535C2.50534 42.6535 1.88766 42.0358 1.88766 41.2723V41.1779C1.88766 40.4144 2.50534 39.7967 3.26886 39.7967C4.03238 39.7967 4.65006 40.4144 4.65006 41.1779V41.2723C4.65006 42.0358 4.03238 42.6535 3.26886 42.6535ZM3.26886 36.0735C2.50534 36.0735 1.88766 35.4558 1.88766 34.6923V34.5979C1.88766 33.8344 2.50534 33.2167 3.26886 33.2167C4.03238 33.2167 4.65006 33.8344 4.65006 34.5979V34.6923C4.65006 35.4558 4.03238 36.0735 3.26886 36.0735ZM3.26886 29.4935C2.50534 29.4935 1.88766 28.8758 1.88766 28.1123V28.0179C1.88766 27.2544 2.50534 26.6367 3.26886 26.6367C4.03238 26.6367 4.65006 27.2544 4.65006 28.0179V28.1123C4.65006 28.8758 4.03238 29.4935 3.26886 29.4935ZM3.26886 22.9135C2.50534 22.9135 1.88766 22.2958 1.88766 21.5323V21.4379C1.88766 20.6744 2.50534 20.0567 3.26886 20.0567C4.03238 20.0567 4.65006 20.6744 4.65006 21.4379V21.5323C4.65006 22.2958 4.03238 22.9135 3.26886 22.9135ZM3.26886 16.342C2.50534 16.342 1.88766 15.7244 1.88766 14.9608V14.8665C1.88766 14.103 2.50534 13.4853 3.26886 13.4853C4.03238 13.4853 4.65006 14.103 4.65006 14.8665V14.9608C4.65006 15.7158 4.03238 16.342 3.26886 16.342ZM3.26886 9.76204C2.50534 9.76204 1.88766 9.14436 1.88766 8.38084V8.28647C1.88766 7.52295 2.50534 6.90527 3.26886 6.90527C4.03238 6.90527 4.65006 7.52295 4.65006 8.28647V8.38084C4.65006 9.14436 4.03238 9.76204 3.26886 9.76204Z" fill="#6D6E71"/>
<path d="M3.26886 101.822C2.50534 101.822 1.88766 101.205 1.88766 100.441C1.88766 99.6776 2.50534 99.0342 3.26886 99.0342C4.03238 99.0342 4.65006 99.6261 4.65006 100.39V100.433C4.65006 101.205 4.03238 101.822 3.26886 101.822Z" fill="#6D6E71"/>
</g>
<defs>
<clipPath id="clip0">
<rect width="5.5248" height="191.97" fill="white" transform="translate(0.50647 0.394043)"/>
</clipPath>
</defs>
</svg>
