<svg width="6" height="162" viewBox="0 0 6 162" fill="none" xmlns="http://www.w3.org/2000/svg">
<path d="M5.64739 76.2354H0.122589V161.647H5.64739V76.2354Z" fill="#F57C00"/>
<path d="M2.88498 52.7974C2.12146 52.7974 1.50378 52.1797 1.50378 51.4162C1.50378 50.6527 2.12146 50.0093 2.88498 50.0093C3.6485 50.0093 4.26618 50.6012 4.26618 51.3647V51.4076C4.26618 52.1797 3.6485 52.7974 2.88498 52.7974Z" fill="#6D6E71"/>
<path d="M2.88498 65.0309C2.12146 65.0309 1.50378 64.4132 1.50378 63.6497C1.50378 62.8862 2.12146 62.2256 2.88498 62.2256C3.6485 62.2256 4.26618 62.8004 4.26618 63.5639V63.6497C4.26618 64.4132 3.6485 65.0309 2.88498 65.0309ZM2.88498 58.9142C2.12146 58.9142 1.50378 58.2965 1.50378 57.533C1.50378 56.7695 2.12146 56.1089 2.88498 56.1089C3.6485 56.1089 4.26618 56.6837 4.26618 57.4472V57.533C4.26618 58.2965 3.6485 58.9142 2.88498 58.9142Z" fill="#6D6E71"/>
<path d="M2.88498 71.1133C2.12146 71.1133 1.50378 70.4957 1.50378 69.7321C1.50378 68.9686 2.12146 68.3252 2.88498 68.3252C3.6485 68.3252 4.26618 68.9171 4.26618 69.6807V69.7236C4.26618 70.4957 3.6485 71.1133 2.88498 71.1133Z" fill="#6D6E71"/>
<path d="M2.88498 28.2671C2.12146 28.2671 1.50378 27.6495 1.50378 26.8859C1.50378 26.1224 2.12146 25.479 2.88498 25.479C3.6485 25.479 4.26618 26.0709 4.26618 26.8345V26.8774C4.26618 27.6495 3.6485 28.2671 2.88498 28.2671Z" fill="#6D6E71"/>
<path d="M2.88498 40.5006C2.12146 40.5006 1.50378 39.883 1.50378 39.1194C1.50378 38.3559 2.12146 37.6954 2.88498 37.6954C3.6485 37.6954 4.26618 38.2701 4.26618 39.0337V39.1194C4.26618 39.883 3.6485 40.5006 2.88498 40.5006ZM2.88498 34.3839C2.12146 34.3839 1.50378 33.7662 1.50378 33.0027C1.50378 32.2392 2.12146 31.5786 2.88498 31.5786C3.6485 31.5786 4.26618 32.1534 4.26618 32.9169V33.0027C4.26618 33.7662 3.6485 34.3839 2.88498 34.3839Z" fill="#6D6E71"/>
<path d="M2.88498 46.5831C2.12146 46.5831 1.50378 45.9654 1.50378 45.2019C1.50378 44.4383 2.12146 43.7949 2.88498 43.7949C3.6485 43.7949 4.26618 44.3869 4.26618 45.1504V45.1933C4.26618 45.9654 3.6485 46.5831 2.88498 46.5831Z" fill="#6D6E71"/>
<path d="M2.8855 3.73735C2.12198 3.73735 1.5043 3.11967 1.5043 2.35615C1.5043 1.59263 2.12198 0.949219 2.8855 0.949219C3.64902 0.949219 4.2667 1.54116 4.2667 2.30468V2.34758C4.2667 3.11967 3.64902 3.73735 2.8855 3.73735Z" fill="#6D6E71"/>
<path d="M2.88498 15.9704C2.12146 15.9704 1.50378 15.3527 1.50378 14.5892C1.50378 13.8257 2.12146 13.1651 2.88498 13.1651C3.6485 13.1651 4.26618 13.7399 4.26618 14.5034V14.5892C4.26618 15.3527 3.6485 15.9704 2.88498 15.9704ZM2.88498 9.85363C2.12146 9.85363 1.50378 9.23595 1.50378 8.47243C1.50378 7.70891 2.12146 7.04834 2.88498 7.04834C3.6485 7.04834 4.26618 7.62312 4.26618 8.38664V8.47243C4.26618 9.23595 3.6485 9.85363 2.88498 9.85363Z" fill="#6D6E71"/>
<path d="M2.88498 22.0528C2.12146 22.0528 1.50378 21.4351 1.50378 20.6716C1.50378 19.9081 2.12146 19.2646 2.88498 19.2646C3.6485 19.2646 4.26618 19.8566 4.26618 20.6201V20.663C4.26618 21.4351 3.6485 22.0528 2.88498 22.0528Z" fill="#6D6E71"/>
</svg>
