<svg width="69" height="70" viewBox="0 0 69 70" fill="none" xmlns="http://www.w3.org/2000/svg">
<path fill-rule="evenodd" clip-rule="evenodd" d="M34.5 69.5005C15.4452 69.5005 0 54.1111 0 35.1253C0 16.1394 15.4452 0.75 34.5 0.75C53.5547 0.75 68.9999 16.1394 68.9999 35.1253C68.9999 54.1111 53.5547 69.5005 34.5 69.5005ZM35.1037 50.8627C37.3203 52.3902 40.1321 53.299 43.1767 53.299C43.9335 53.299 44.6818 53.2432 45.417 53.1336C45.6693 53.2367 45.913 53.3635 46.2127 53.5353C46.8596 53.9135 47.7242 54.4936 48.8002 55.2756C49.6821 55.918 50.9306 55.2971 50.9306 54.2164V51.0775C51.3834 50.7853 51.8103 50.4695 52.2135 50.1279C54.6501 48.0697 56.0624 45.2552 56.0624 42.2366C56.0624 40.2493 55.4587 38.3909 54.3978 36.786C54.0634 37.9257 53.6102 39.0274 53.0458 40.0731C53.2701 40.7671 53.3887 41.4911 53.3887 42.2366C53.3887 44.4581 52.3364 46.555 50.4734 48.1277C49.9928 48.5323 49.4752 48.8912 48.9274 49.1998C48.7245 49.314 48.5555 49.4797 48.4377 49.6801C48.32 49.8805 48.2575 50.1084 48.2568 50.3406V51.6812C46.9782 50.8648 46.1006 50.4802 45.4321 50.4802C45.357 50.4805 45.282 50.4869 45.2079 50.4996C43.3345 50.8117 41.414 50.6867 39.5973 50.1343C38.1259 50.5151 36.6224 50.7596 35.1059 50.8648L35.1037 50.8627ZM19.0052 44.5849C19.7162 45.1843 20.4684 45.7335 21.2563 46.2285V51.5824C21.2563 52.9359 22.8196 53.7094 23.9214 52.9058C26.9617 50.6929 29.0748 49.4425 29.6031 49.3179C30.8236 49.5113 32.0699 49.608 33.3291 49.608C44.5416 49.608 53.7229 41.8585 53.7229 32.1625C53.7229 22.4644 44.5394 14.7149 33.3291 14.7149C22.1188 14.7149 12.9375 22.4644 12.9375 32.1604C12.9375 36.9085 15.1584 41.3364 19.0052 44.5849ZM29.6764 46.0158C28.5918 46.0158 27.007 46.7785 24.6006 48.3877V45.3003C24.5996 45.0097 24.5212 44.7245 24.3734 44.4739C24.2257 44.2233 24.0139 44.0162 23.7597 43.8738C22.846 43.3585 21.9826 42.7594 21.1808 42.0841C18.0478 39.4436 16.2797 35.9116 16.2797 32.1604C16.2797 24.4045 23.861 18.0064 33.3291 18.0064C42.7994 18.0064 50.3786 24.4045 50.3786 32.1604C50.3786 39.9163 42.7994 46.3165 33.3291 46.3165C32.1863 46.3165 31.0586 46.222 29.9567 46.0372C29.8641 46.0223 29.7703 46.0152 29.6764 46.0158ZM24.6373 35.454C26.1143 35.454 27.311 34.2723 27.311 32.82C27.311 31.3655 26.1143 30.186 24.6373 30.186C23.1603 30.186 21.9635 31.3655 21.9635 32.82C21.9635 34.2745 23.1603 35.454 24.6373 35.454ZM33.3291 35.454C34.8061 35.454 36.0029 34.2723 36.0029 32.82C36.0029 31.3655 34.8061 30.186 33.3291 30.186C31.8521 30.186 30.6554 31.3655 30.6554 32.82C30.6554 34.2745 31.8521 35.454 33.3291 35.454ZM42.021 35.454C43.498 35.454 44.6947 34.2723 44.6947 32.82C44.6947 31.3655 43.498 30.186 42.021 30.186C40.5439 30.186 39.3472 31.3655 39.3472 32.82C39.3472 34.2745 40.5439 35.454 42.021 35.454Z" fill="#ED1C1F"/>
</svg>
