<svg width="69" height="69" viewBox="0 0 69 69" fill="none" xmlns="http://www.w3.org/2000/svg">
<path d="M34.5 0C15.4461 0 0 15.3903 0 34.3753C0 53.3602 15.4461 68.7505 34.5 68.7505C53.5538 68.7505 68.9999 53.3602 68.9999 34.3753C68.9999 15.3903 53.5538 0 34.5 0ZM22.1015 13.6544C22.8123 13.6127 23.4549 14.036 23.9419 14.7874L28.6587 23.7001C29.1553 24.7562 28.8731 25.887 28.1323 26.6416L25.9719 28.7943C25.8385 28.9763 25.7508 29.1814 25.7486 29.4069C26.5772 32.6024 29.0904 35.5499 31.3078 37.5769C33.5251 39.6039 35.9083 42.3483 39.002 42.9984C39.3843 43.1047 39.8528 43.1428 40.1264 42.8894L42.6364 40.3423C43.5028 39.688 44.7562 39.3708 45.6813 39.9059H45.7234L54.2346 44.912C55.4839 45.6922 55.6134 47.2004 54.7189 48.1179L48.8567 53.9128C47.991 54.7974 46.8409 55.0948 45.7235 55.0961C40.7815 54.9486 36.1119 52.5317 32.2764 50.0481C25.9808 45.4846 20.2059 39.8245 16.5804 32.9863C15.1899 30.1189 13.5565 26.4602 13.7124 23.2596C13.7263 22.0556 14.0533 20.876 14.9043 20.0999L20.7666 14.2588C21.2232 13.8716 21.675 13.6795 22.1015 13.6544Z" fill="#ED1C1F"/>
</svg>
