<svg width="53" height="57" viewBox="0 0 53 57" fill="none" xmlns="http://www.w3.org/2000/svg">
<path fill-rule="evenodd" clip-rule="evenodd" d="M22.1774 54.3812C23.2002 54.5298 23.2002 54.5298 24.249 54.6561C25.0016 54.7289 25.6981 55.023 25.7473 55.2941C25.8192 55.6279 25.8192 55.6279 25.8979 55.9226C25.9617 56.1161 25.4378 56.2111 24.7602 56.1416C23.8297 56.025 23.8297 56.025 22.9291 55.8895C22.2552 55.7717 21.6159 55.519 21.4938 55.3213C21.2898 55.0118 21.2898 55.0118 21.1007 54.6688C20.9811 54.3981 21.45 54.2608 22.1774 54.3812ZM17.0363 53.2112C17.9224 53.4681 17.9224 53.4681 18.8373 53.7074C19.5371 53.8752 20.2227 54.2416 20.3904 54.5247C20.5741 54.863 20.5741 54.863 20.8004 55.1772C20.9465 55.3799 20.5212 55.4068 19.9089 55.2562C19.0775 55.031 19.0775 55.031 18.2782 54.7928C17.6759 54.5955 17.063 54.2779 16.8502 54.0575C16.5646 53.7323 16.5646 53.7323 16.271 53.3707C16.0687 53.0893 16.3942 53.0067 17.0363 53.2112ZM33.6977 54.6487C34.72 54.5262 34.72 54.5262 35.7425 54.3774C36.4699 54.2563 36.965 54.3854 36.8195 54.6644C36.6307 55.0074 36.6307 55.0074 36.454 55.3098C36.3049 55.5148 35.6659 55.7678 35.0199 55.88C34.0914 56.022 34.0914 56.022 33.1611 56.1392C32.4833 56.209 31.9594 56.1146 32.0232 55.9208C32.1016 55.6258 32.1016 55.6258 32.1734 55.2923C32.2492 55.0177 32.9183 54.7265 33.6977 54.6487ZM27.9004 54.8926C28.9732 54.9047 28.9732 54.9047 30.0462 54.8908C30.8244 54.865 31.4367 55.0728 31.3799 55.3456C31.3264 55.6788 31.3264 55.6788 31.2678 55.9729C31.2275 56.1649 30.6164 56.3381 29.9089 56.3626C28.9747 56.3747 28.9747 56.3747 28.0119 56.3632C27.3044 56.3389 26.6933 56.1661 26.6527 55.9741C26.5941 55.68 26.5941 55.68 26.5406 55.3471C26.5102 55.0763 27.0954 54.8659 27.9004 54.8926ZM39.082 53.7015C40.0219 53.4506 40.0219 53.4506 40.9077 53.1926C41.5248 52.9996 41.8752 53.0692 41.648 53.3633C41.3549 53.7252 41.3549 53.7252 41.0694 54.0504C40.8827 54.2593 40.2443 54.5889 39.6687 54.776C38.8424 55.0254 38.8424 55.0254 38.0116 55.2512C37.3993 55.4021 37.0014 55.3675 37.1471 55.1645C37.3461 54.8582 37.3461 54.8582 37.5559 54.5114C37.6966 54.2365 38.4081 53.8607 39.082 53.7015ZM10.866 48.5885C11.646 48.925 11.646 48.925 12.4572 49.2422C13.0629 49.4564 13.7831 50.04 13.9908 50.4877C14.3085 51.0798 14.3085 51.0798 14.6127 51.6172C14.8387 51.9856 14.5228 52.0791 13.943 51.8483C13.1834 51.5242 13.1834 51.5242 12.4792 51.205C11.9643 50.9511 11.3472 50.4557 11.0743 50.0773C10.7205 49.542 10.7205 49.542 10.3721 48.9709C10.1124 48.5205 10.3423 48.3557 10.866 48.5885ZM7.41199 46.7113C7.95364 47.0587 7.95364 47.0587 8.55029 47.4215C9.00597 47.6777 9.59871 48.2586 9.86142 48.706C10.2119 49.273 10.2119 49.273 10.5894 49.8231C10.8413 50.1817 10.6958 50.2669 10.2486 49.9997C9.66153 49.6263 9.66153 49.6263 9.13041 49.2706C8.75168 49.0001 8.23738 48.4965 7.96115 48.1249C7.59715 47.6035 7.59715 47.6035 7.23435 47.0483C6.96022 46.6095 7.04619 46.4657 7.41199 46.7113ZM21.2928 51.3908C22.4449 51.5378 22.4449 51.5378 23.612 51.6604C24.4813 51.7355 25.2598 52.1971 25.3121 52.6676C25.402 53.2645 25.402 53.2645 25.4816 53.8063C25.5378 54.1711 24.9439 54.3984 24.1471 54.3203C23.1092 54.1992 23.1092 54.1992 22.0701 54.051C21.3231 53.9285 20.6026 53.5385 20.4478 53.1683C20.2503 52.6256 20.2503 52.6256 20.058 52.0335C19.9131 51.5648 20.4764 51.273 21.2928 51.3908ZM15.5361 50.2261C16.5385 50.4915 16.5385 50.4915 17.5382 50.7188C18.323 50.8886 19.0787 51.4121 19.2389 51.8817C19.4454 52.472 19.4454 52.472 19.6585 53.0141C19.8073 53.3784 19.3465 53.5311 18.651 53.3677C17.7156 53.1245 17.7156 53.1245 16.8078 52.862C16.1679 52.662 15.4756 52.2063 15.2725 51.8462C14.9674 51.3011 14.9674 51.3011 14.6716 50.7149C14.4636 50.2601 14.8366 50.0275 15.5361 50.2261ZM34.3061 51.6574C35.4729 51.5346 35.4729 51.5346 36.625 51.3863C37.4645 51.26 38.0047 51.5595 37.8607 52.0285C37.6686 52.6206 37.6686 52.6206 37.4718 53.1636C37.3422 53.5258 36.6226 53.9166 35.8757 54.0403C34.8369 54.1901 34.8369 54.1901 33.7728 54.3176C33.0021 54.3922 32.382 54.1694 32.4635 53.8009C32.5422 53.2588 32.5422 53.2588 32.6066 52.6656C32.6826 52.1912 33.4368 51.7328 34.3061 51.6574ZM27.7579 51.8971C28.9711 51.9089 28.9711 51.9089 30.1842 51.8953C31.0655 51.8699 31.758 52.2468 31.7139 52.7188C31.6543 53.3145 31.6543 53.3145 31.5834 53.8581C31.5419 54.2229 30.8539 54.5333 30.0592 54.5591C28.9732 54.5727 28.9732 54.5727 27.861 54.5597C27.0663 54.5342 26.378 54.2241 26.3365 53.8595C26.2652 53.316 26.2652 53.316 26.2051 52.7203C26.1606 52.2483 26.8526 51.871 27.7579 51.8971ZM9.15055 44.3799C9.9594 44.6553 9.9594 44.6553 10.832 44.9388C11.4879 45.1244 12.2107 45.8331 12.4031 46.4787C12.6968 47.3374 12.6968 47.3374 12.982 48.1331C13.1954 48.6853 12.8351 48.9348 12.2065 48.711C11.3923 48.4012 11.3923 48.4012 10.6084 48.0713C10.0811 47.8429 9.44391 47.2188 9.19022 46.6811C8.8695 45.9301 8.8695 45.9301 8.55089 45.1294C8.32155 44.5109 8.58906 44.1736 9.15055 44.3799ZM5.57245 42.7571C6.13513 43.0755 6.13513 43.0755 6.72336 43.3616C7.19467 43.585 7.79072 44.2905 8.01075 44.8862C8.33688 45.6836 8.33688 45.6836 8.66451 46.4305C8.9221 46.9652 8.73725 47.1729 8.27856 46.9193C7.69694 46.5799 7.69694 46.5799 7.13336 46.213C6.76515 45.968 6.25897 45.3632 5.99867 44.8577C5.65511 44.1431 5.6551 44.1431 5.32357 43.3963C5.10234 42.8494 5.19642 42.5372 5.57245 42.7571ZM20.4686 46.7968C21.7328 46.9217 21.7328 46.9217 23.0415 47.0333C24.0031 47.0975 24.824 47.7357 24.8841 48.4391C24.9625 49.3467 24.9625 49.3467 25.0284 50.1927C25.0858 50.7777 24.4197 51.1848 23.5216 51.1076C22.3526 50.9913 22.3526 50.9913 21.1728 50.8431C20.3447 50.7274 19.5383 50.1648 19.4051 49.5905C19.2323 48.7614 19.2323 48.7614 19.0507 47.8704C18.9224 47.1818 19.5599 46.6933 20.4686 46.7968ZM14.1558 45.7863C15.2286 46.0082 15.2286 46.0082 16.3434 46.2142C17.1911 46.3583 18.0077 47.0489 18.1463 47.7337C18.3345 48.6164 18.3345 48.6164 18.5361 49.4479C18.6819 50.0204 18.1469 50.3412 17.3681 50.1814C16.3293 49.9435 16.3293 49.9435 15.3305 49.6902C14.6316 49.5002 13.8994 48.9007 13.6878 48.3406C13.4059 47.5339 13.4059 47.5339 13.1359 46.6805C12.9487 46.0266 13.4095 45.625 14.1558 45.7863ZM27.6139 47.2342C28.9672 47.2445 28.9672 47.2445 30.3207 47.2321C31.2979 47.2102 32.0688 47.7819 32.0367 48.4838C31.9817 49.3919 31.9817 49.3919 31.9249 50.2415C31.8894 50.8262 31.1088 51.3141 30.2013 51.3402C28.9705 51.3535 28.9705 51.3535 27.7164 51.3408C26.8321 51.3174 26.0509 50.8306 26.0146 50.2459C25.9563 49.3967 25.9563 49.3967 25.9 48.4885C25.8471 47.7837 26.6175 47.2117 27.6139 47.2342ZM1.92251 36.6901C2.23661 36.8836 2.23661 36.8836 2.5916 37.0881C2.88166 37.2506 3.25768 37.9229 3.43082 38.6108C3.67729 39.5101 3.67729 39.5101 3.9415 40.3816C4.15161 41.0127 4.06804 41.3344 3.76777 41.1127C3.39805 40.8263 3.39805 40.8263 3.06561 40.5473C2.83988 40.3392 2.51405 39.738 2.32228 39.1722C2.06648 38.3599 2.06648 38.3599 1.83444 37.5429C1.67904 36.9405 1.71421 36.5481 1.92251 36.6901ZM7.79343 38.9133C8.65008 39.1242 8.65008 39.1242 9.54731 39.3009C10.2423 39.4305 10.9579 40.2478 11.0953 41.0657C11.3093 42.1644 11.3093 42.1644 11.5399 43.2214C11.7076 43.9573 11.2874 44.3976 10.6237 44.2168C9.75651 43.957 9.75651 43.957 8.93653 43.6854C8.36693 43.4815 7.75435 42.7642 7.54455 42.0558C7.28395 41.0728 7.28395 41.0728 7.051 40.072C6.87486 39.284 7.2106 38.7754 7.79343 38.9133ZM4.13718 37.7953C4.69115 38.0004 4.69115 38.0004 5.30313 38.2223C5.78195 38.3756 6.3275 39.1382 6.49162 39.8877C6.73809 40.8935 6.73809 40.8935 6.99839 41.8575C7.20279 42.5458 6.96744 42.9157 6.50424 42.7145C5.89256 42.4056 5.89256 42.4056 5.35062 42.1321C4.96948 41.9114 4.50328 41.2329 4.29799 40.6035C4.02837 39.7113 4.02837 39.7113 3.77799 38.7914C3.60996 38.1072 3.76506 37.6521 4.13718 37.7953ZM19.8157 40.6002C21.1842 40.6914 21.1842 40.6914 22.5738 40.7633C23.6048 40.8059 24.4927 41.6057 24.5276 42.5204C24.5844 43.7277 24.5844 43.7277 24.6454 44.8838C24.6917 45.6975 23.9249 46.2976 22.9571 46.2367C21.6471 46.1337 21.6471 46.1337 20.3562 46.0082C19.4445 45.9121 18.5996 45.1892 18.4844 44.3935C18.3471 43.2723 18.3471 43.2723 18.2076 42.0943C18.1192 41.2074 18.8406 40.531 19.8157 40.6002ZM13.0782 39.9078C14.2144 40.0555 14.2144 40.0555 15.3984 40.1928C16.3067 40.2984 17.1333 41.1095 17.2352 41.9957C17.3855 43.1655 17.3855 43.1655 17.5469 44.2869C17.6551 45.0667 17.0462 45.5877 16.2015 45.4575C15.0699 45.2554 15.0699 45.2554 13.9932 45.048C13.2249 44.8808 12.4626 44.1337 12.3036 43.3927C12.0866 42.3316 12.0866 42.3316 11.8753 41.216C11.7397 40.3833 12.2649 39.777 13.0782 39.9078ZM1.13619 31.6239C1.44308 31.7269 1.44308 31.7269 1.78604 31.7949C2.06438 31.842 2.36767 32.5246 2.44852 33.2907C2.58048 34.3217 2.58048 34.3217 2.72806 35.3011C2.85971 36.0421 2.72025 36.5049 2.43469 36.3637C2.08332 36.1803 2.08332 36.1803 1.77312 36.0086C1.56271 35.8636 1.30241 35.236 1.18008 34.5735C1.0391 33.6878 1.0391 33.6878 0.917068 32.7726C0.84012 32.0784 0.940213 31.5902 1.13619 31.6239ZM7.01793 32.5095C7.88601 32.5874 7.88601 32.5874 8.816 32.6752C9.53318 32.7267 10.189 33.5443 10.2561 34.4892C10.3721 35.7761 10.3721 35.7761 10.5017 37.0198C10.6093 37.9146 10.1055 38.5301 9.40604 38.4099C8.50009 38.2404 8.50009 38.2404 7.64675 38.0581C7.06182 37.9329 6.48681 37.144 6.36688 36.3297C6.21268 35.17 6.21268 35.17 6.08584 33.9988C6.01009 33.1392 6.42038 32.4584 7.01793 32.5095ZM3.3166 32.0716C3.87597 32.1701 3.87597 32.1701 4.48705 32.2533C4.96858 32.3003 5.4426 33.0614 5.52105 33.9154C5.64789 35.062 5.64789 35.062 5.79998 36.1948C5.92983 37.0201 5.62535 37.5551 5.14682 37.4172C4.54236 37.2334 4.54236 37.2334 3.97907 37.0198C3.60906 36.8952 3.20027 36.1646 3.07373 35.4301C2.91983 34.4087 2.91983 34.4087 2.79359 33.3884C2.71093 32.6051 2.94237 32.0192 3.3166 32.0716ZM12.4443 32.9031C13.6238 32.9635 13.6238 32.9635 14.8586 33.03C15.7906 33.0629 16.607 33.9358 16.653 34.9517C16.7318 36.3232 16.7318 36.3232 16.8231 37.6637C16.9001 38.6277 16.2009 39.324 15.2926 39.2323C14.1005 39.1062 14.1005 39.1062 12.9541 38.9674C12.1473 38.8627 11.4106 38.0371 11.3015 37.1218C11.1789 35.8684 11.1789 35.8684 11.0652 34.5628C11.0024 33.6115 11.6123 32.8513 12.4443 32.9031ZM1.07066 26.3106C1.37395 26.2523 1.37395 26.2523 1.71721 26.1993C1.99585 26.1694 2.21197 26.7707 2.18792 27.5353C2.1771 28.621 2.1771 28.621 2.19423 29.7017C2.22249 30.4663 2.01028 31.0697 1.72984 31.0155C1.38717 30.9649 1.38717 30.9649 1.08179 30.8818C0.884005 30.843 0.704559 30.2429 0.677506 29.5469C0.662477 28.6281 0.662477 28.6281 0.672397 27.6481C0.695842 26.9518 0.872583 26.3508 1.07066 26.3106ZM6.95301 25.6995C7.82048 25.6617 7.82048 25.6617 8.75047 25.6043C9.46946 25.5699 10.0571 26.3212 10.0355 27.2954C10.0255 28.6601 10.0255 28.6601 10.0397 29.9849C10.0646 30.9608 9.48208 31.7227 8.7628 31.6786C7.83581 31.6331 7.83581 31.6331 6.96473 31.5632C6.36387 31.5112 5.86431 30.748 5.83666 29.8576C5.82102 28.65 5.82102 28.65 5.83185 27.393C5.85589 26.5032 6.35365 25.7362 6.95301 25.6995ZM3.24506 26.0224C3.80353 25.9511 3.80353 25.9511 4.41521 25.891C4.89945 25.8466 5.28629 26.5479 5.26285 27.4125C5.25203 28.6539 5.25203 28.6539 5.26826 29.844C5.29772 30.7326 4.91057 31.3919 4.42754 31.3522C3.81736 31.2978 3.81736 31.2978 3.25979 31.2318C2.88556 31.1936 2.56334 30.4935 2.53479 29.7126C2.51796 28.6195 2.51796 28.6195 2.52908 27.5217C2.55342 26.7405 2.87023 26.0638 3.24506 26.0224ZM1.77282 20.9914C2.08302 20.8197 2.08302 20.8197 2.43439 20.6363C2.71994 20.4951 2.85971 20.9582 2.72776 21.6989C2.58018 22.6783 2.58018 22.6783 2.44822 23.7093C2.36736 24.4754 2.06408 25.158 1.78574 25.2051C1.44278 25.2731 1.44278 25.2731 1.13589 25.3761C0.939612 25.4098 0.839819 24.9216 0.916768 24.2274C1.0388 23.3122 1.0388 23.3122 1.17977 22.4265C1.30211 21.7637 1.56241 21.1364 1.77282 20.9914ZM7.64675 18.9416C8.50009 18.759 8.50009 18.759 9.40604 18.5898C10.1055 18.4699 10.6093 19.0851 10.5017 19.9799C10.3718 21.2239 10.3718 21.2239 10.2561 22.5105C10.189 23.4554 9.53318 24.273 8.816 24.3245C7.88601 24.4123 7.88601 24.4123 7.01793 24.4902C6.42038 24.5414 6.01009 23.8605 6.08584 23.0006C6.21298 21.8294 6.21298 21.8294 6.36688 20.6697C6.48681 19.856 7.06182 19.0671 7.64675 18.9416ZM3.97877 19.9799C4.54206 19.7663 4.54206 19.7663 5.14652 19.5825C5.62505 19.4449 5.92983 19.9797 5.79968 20.8049C5.64759 21.9377 5.64759 21.9377 5.52075 23.0843C5.4423 23.9383 4.96858 24.6994 4.48675 24.7464C3.87567 24.8296 3.87567 24.8296 3.31629 24.9281C2.94237 24.9805 2.71093 24.3946 2.79299 23.6113C2.91923 22.591 2.91923 22.591 3.07313 21.5696C3.19997 20.8354 3.60846 20.1045 3.97877 19.9799ZM12.9541 18.0323C14.1005 17.8935 14.1005 17.8935 15.2926 17.7674C16.2009 17.6754 16.9001 18.372 16.8231 19.3361C16.7318 20.6765 16.7318 20.6765 16.653 22.048C16.607 23.0639 15.7906 23.9371 14.8586 23.97C13.6238 24.0365 13.6238 24.0365 12.4443 24.0966C11.612 24.1484 11.0024 23.3882 11.0652 22.4372C11.1792 21.1313 11.1792 21.1313 11.3015 19.8782C11.4106 18.9626 12.1473 18.1373 12.9541 18.0323ZM3.06561 16.4527C3.39805 16.1737 3.39805 16.1737 3.76777 15.8875C4.06804 15.6656 4.15131 15.9873 3.9415 16.6184C3.67729 17.4899 3.67729 17.4899 3.43082 18.3891C3.25768 19.0768 2.88196 19.7494 2.5916 19.9116C2.23661 20.1158 2.23661 20.1158 1.92251 20.3096C1.71421 20.4516 1.67904 20.0592 1.83414 19.4571C2.06588 18.6398 2.06588 18.6398 2.32198 17.8278C2.51405 17.2623 2.83988 16.6608 3.06561 16.4527ZM8.93653 13.3146C9.75651 13.043 9.75651 13.043 10.6237 12.7832C11.2874 12.6024 11.7076 13.0427 11.5399 13.7783C11.3093 14.8356 11.3093 14.8356 11.0953 15.9343C10.9579 16.7522 10.2423 17.5695 9.54731 17.6991C8.65008 17.8757 8.65008 17.8757 7.79343 18.0867C7.2106 18.2246 6.87486 17.716 7.051 16.928C7.28395 15.9272 7.28395 15.9272 7.54455 14.9442C7.75435 14.2358 8.36693 13.5185 8.93653 13.3146ZM5.35062 14.8679C5.89256 14.5944 5.89256 14.5944 6.50424 14.2855C6.96774 14.0843 7.20279 14.4539 6.99839 15.1425C6.73809 16.1065 6.73809 16.1065 6.49162 17.1123C6.3275 17.8618 5.78195 18.6244 5.30313 18.7777C4.69085 18.9996 4.69085 18.9996 4.13718 19.2044C3.76506 19.3476 3.60996 18.8922 3.77799 18.2086C4.02837 17.289 4.02837 17.289 4.29799 16.3965C4.50358 15.7671 4.96948 15.0886 5.35062 14.8679ZM20.3562 10.9909C21.6471 10.8654 21.6471 10.8654 22.9571 10.7624C23.9249 10.7015 24.6914 11.3016 24.6454 12.1153C24.5841 13.2717 24.5841 13.2717 24.5276 14.479C24.493 15.3937 23.6048 16.1935 22.5738 16.2361C21.1842 16.3083 21.1842 16.3083 19.8157 16.3992C18.8409 16.4684 18.1192 15.7923 18.2079 14.9048C18.3474 13.7268 18.3474 13.7268 18.4847 12.6056C18.5996 11.8099 19.4445 11.087 20.3562 10.9909ZM13.9935 11.952C15.0702 11.7449 15.0702 11.7449 16.2018 11.5424C17.0465 11.4123 17.6551 11.933 17.5472 12.7131C17.3858 13.8345 17.3858 13.8345 17.2355 15.0043C17.1336 15.8902 16.3067 16.7013 15.3987 16.8072C14.2147 16.9445 14.2147 16.9445 13.0785 17.0919C12.2652 17.2227 11.7397 16.6167 11.8759 15.784C12.0872 14.6684 12.0872 14.6684 12.3042 13.6073C12.4629 12.8663 13.2252 12.1189 13.9935 11.952ZM10.609 8.9287C11.3926 8.59877 11.3926 8.59877 12.2071 8.28895C12.8357 8.06524 13.196 8.31469 12.9826 8.86686C12.6971 9.66255 12.6971 9.66255 12.4037 10.5213C12.2113 11.1672 11.4885 11.8759 10.8326 12.0612C9.96001 12.3447 9.96001 12.3447 9.15115 12.6201C8.58936 12.8261 8.32185 12.4888 8.55209 11.8706C8.87071 11.0696 8.8707 11.0696 9.19142 10.3189C9.44451 9.78121 10.0817 9.15714 10.609 8.9287ZM7.13336 10.7867C7.69694 10.4201 7.69694 10.4201 8.27856 10.0804C8.73725 9.82648 8.9221 10.0342 8.66451 10.5692C8.33688 11.3161 8.33688 11.3161 8.01075 12.1136C7.79042 12.7092 7.19437 13.4147 6.72336 13.6381C6.13483 13.9242 6.13483 13.9242 5.57245 14.2426C5.19672 14.4625 5.10234 14.1503 5.32387 13.6037C5.65541 12.8569 5.65541 12.8569 5.99897 12.142C6.25897 11.6365 6.76515 11.0317 7.13336 10.7867ZM21.1731 6.15724C22.3529 6.00899 22.3529 6.00899 23.5219 5.89269C24.42 5.81546 25.0864 6.22263 25.0287 6.80734C24.9628 7.65364 24.9628 7.65364 24.8844 8.56118C24.8243 9.26456 24.0034 9.90283 23.0418 9.96704C21.7328 10.0786 21.7328 10.0786 20.4689 10.2035C19.5599 10.307 18.9227 9.81849 19.0513 9.13021C19.2329 8.23924 19.2329 8.23924 19.4057 7.41011C19.5386 6.83516 20.345 6.27294 21.1731 6.15724ZM15.3308 7.30979C16.3293 7.0565 16.3293 7.0565 17.3684 6.81859C18.1472 6.6585 18.6819 6.97956 18.5364 7.55214C18.3348 8.38394 18.3348 8.38394 18.1466 9.26633C18.008 9.95076 17.1911 10.6417 16.3437 10.7858C15.2292 10.9918 15.2292 10.9918 14.1561 11.2137C13.4095 11.375 12.949 10.9734 13.1365 10.3198C13.4065 9.46607 13.4065 9.46607 13.6884 8.65972C13.8997 8.09927 14.6319 7.49977 15.3308 7.30979ZM27.7164 5.65863C28.9705 5.64591 28.9705 5.64591 30.2013 5.65922C31.1088 5.68526 31.8894 6.17321 31.9249 6.75793C31.9817 7.60748 31.9817 7.60748 32.0367 8.51562C32.0688 9.2178 31.2979 9.7895 30.3207 9.7676C28.9675 9.75517 28.9675 9.75517 27.6139 9.76553C26.6178 9.78802 25.8471 9.21603 25.9 8.51088C25.9566 7.60274 25.9566 7.60274 26.0146 6.75349C26.0509 6.16878 26.8321 5.68201 27.7164 5.65863ZM12.4795 5.79475C13.1834 5.47547 13.1834 5.47547 13.9433 5.15145C14.5228 4.92064 14.839 5.01444 14.613 5.38255C14.3088 5.92021 14.3088 5.92021 13.9911 6.51203C13.7831 6.95974 13.0632 7.54356 12.4575 7.7575C11.6463 8.07471 11.6463 8.07471 10.8663 8.41116C10.3426 8.64404 10.1127 8.47922 10.373 8.02885C10.7211 7.45775 10.7211 7.45775 11.0752 6.92245C11.3478 6.54399 11.9649 6.04864 12.4795 5.79475ZM9.13011 7.72909C9.66153 7.37312 9.66153 7.37312 10.2483 6.99998C10.6955 6.73307 10.8407 6.818 10.5891 7.17664C10.2119 7.72673 10.2119 7.72673 9.86111 8.29368C9.59841 8.7411 9.00566 9.32196 8.54999 9.57822C7.95334 9.9407 7.95334 9.9407 7.41169 10.2884C7.04619 10.5343 6.95992 10.3905 7.23375 9.95136C7.59685 9.39653 7.59685 9.39653 7.96055 8.87485C8.23738 8.50319 8.75138 7.99955 9.13011 7.72909ZM22.0698 2.94871C23.1089 2.80076 23.1089 2.80076 24.1468 2.67944C24.9439 2.60132 25.5375 2.82858 25.4813 3.19313C25.402 3.73524 25.402 3.73524 25.3121 4.33178C25.2598 4.80228 24.4813 5.26389 23.612 5.33905C22.4452 5.46126 22.4452 5.46126 21.2928 5.60862C20.4764 5.72639 19.9131 5.43493 20.0574 4.96591C20.2497 4.3738 20.2497 4.3738 20.4472 3.83111C20.6023 3.46123 21.3225 3.07122 22.0698 2.94871ZM16.8078 4.13767C17.7156 3.8752 17.7156 3.8752 18.651 3.63196C19.3465 3.46862 19.8073 3.62131 19.6585 3.98557C19.4457 4.52797 19.4457 4.52797 19.2389 5.11801C19.0787 5.58761 18.323 6.11107 17.5382 6.28092C16.5385 6.50818 16.5385 6.50818 15.5361 6.77361C14.8366 6.97216 14.4636 6.73958 14.6716 6.28448C14.9671 5.69828 14.9671 5.69828 15.2725 5.15322C15.4756 4.7934 16.1679 4.3377 16.8078 4.13767ZM33.7728 2.6824C34.8369 2.80964 34.8369 2.80964 35.8757 2.95966C36.6226 3.08335 37.3422 3.47454 37.4718 3.83644C37.6686 4.37913 37.6686 4.37913 37.8607 4.97124C38.0047 5.44025 37.4645 5.73971 36.625 5.61336C35.4726 5.4654 35.4726 5.4654 34.3061 5.34231C33.4368 5.26685 32.6826 4.8082 32.6066 4.33415C32.5422 3.74086 32.5422 3.74086 32.4635 3.19876C32.382 2.83065 33.0021 2.60783 33.7728 2.6824ZM27.8607 2.44035C28.9732 2.42733 28.9732 2.42733 30.0589 2.44094C30.8539 2.46698 31.5416 2.77738 31.5831 3.14194C31.654 3.68552 31.654 3.68552 31.7136 4.28118C31.7574 4.75286 31.0652 5.13014 30.1839 5.10469C28.9708 5.09108 28.9708 5.09108 27.7576 5.10292C26.8523 5.12896 26.1603 4.75168 26.2045 4.27971C26.2643 3.68375 26.2643 3.68375 26.3359 3.14046C26.3777 2.77561 27.0657 2.46579 27.8607 2.44035ZM22.9288 1.11024C23.8294 0.974718 23.8294 0.974718 24.7599 0.858131C25.4378 0.788593 25.9614 0.883579 25.8976 1.0771C25.8192 1.37212 25.8192 1.37212 25.747 1.70561C25.6975 1.97666 25.0013 2.27079 24.2487 2.34358C23.1999 2.46994 23.1999 2.46994 22.1771 2.61848C21.4497 2.73892 20.9808 2.60162 21.1001 2.33086C21.2892 1.9879 21.2892 1.9879 21.4932 1.67839C21.6156 1.48102 22.2549 1.22831 22.9288 1.11024ZM18.2782 2.20717C19.0778 1.96897 19.0778 1.96897 19.9089 1.74378C20.5212 1.59316 20.9465 1.62009 20.8004 1.82279C20.5741 2.13704 20.5741 2.13704 20.3904 2.47526C20.2227 2.75845 19.5371 3.12478 18.8373 3.29256C17.9227 3.53195 17.9227 3.53195 17.0363 3.78879C16.3942 3.99327 16.0684 3.91071 16.271 3.6296C16.5643 3.268 16.5643 3.268 16.8502 2.9428C17.0633 2.72235 17.6759 2.40454 18.2782 2.20717ZM33.1608 0.860794C34.0914 0.977973 34.0914 0.977973 35.0196 1.12001C35.6656 1.23216 36.3046 1.48545 36.4537 1.69022C36.6304 1.99264 36.6304 1.99264 36.8192 2.33559C36.9647 2.61464 36.4693 2.74365 35.7422 2.62262C34.7197 2.47349 34.7197 2.47349 33.6974 2.35128C32.9183 2.27316 32.2489 1.98199 32.1725 1.70768C32.101 1.3739 32.101 1.3739 32.0222 1.07888C31.9591 0.885354 32.483 0.79096 33.1608 0.860794ZM28.0119 0.636792C28.9747 0.625252 28.9747 0.625252 29.9089 0.637384C30.6167 0.661944 31.2275 0.83505 31.2678 1.02709C31.3264 1.32123 31.3264 1.32123 31.3799 1.65442C31.437 1.92724 30.8244 2.13497 30.0462 2.10923C28.9732 2.09532 28.9732 2.09532 27.9004 2.10745C27.0954 2.13379 26.5102 1.9234 26.5403 1.65294C26.5938 1.31975 26.5938 1.31975 26.6524 1.02591C26.693 0.833866 27.3041 0.661057 28.0119 0.636792ZM38.0113 1.74881C38.8424 1.97459 38.8424 1.97459 39.6684 2.22404C40.2437 2.41105 40.8824 2.74099 41.0691 2.9496C41.3546 3.2748 41.3546 3.2748 41.6477 3.6367C41.8749 3.93083 41.5245 4.00007 40.9074 3.80744C40.0216 3.54911 40.0216 3.54911 39.0817 3.29818C38.4078 3.13898 37.6966 2.76318 37.5556 2.48858C37.3458 2.14207 37.3458 2.14207 37.1468 1.83551C37.001 1.63252 37.399 1.5979 38.0113 1.74881ZM30.9783 0.00295907C31.1933 0.0174585 31.4073 0.0346211 31.6207 0.0538551C31.688 0.171922 31.6904 0.177248 31.7595 0.326386C31.8043 0.455697 32.4178 0.62318 33.0992 0.694494C34.0064 0.809306 34.0064 0.809306 34.8832 0.941872C35.5321 1.0555 35.952 1.03064 35.8381 0.893048C35.7329 0.786521 35.6938 0.747166 35.6358 0.695382C35.8564 0.746574 36.0765 0.799837 36.2953 0.856059C36.3416 0.89719 36.3897 0.940985 36.488 1.03064C36.6277 1.17416 37.2448 1.41769 37.8589 1.57008C38.6654 1.78876 38.6654 1.78876 39.467 2.02992C39.9007 2.17166 40.1661 2.21131 40.1929 2.15568C41.1424 2.54894 42.0658 2.99103 42.9606 3.4778C42.7914 3.40175 42.6186 3.32659 42.2717 3.17627C41.7355 2.957 41.4514 2.94753 41.6886 3.17893C41.972 3.50147 41.972 3.50147 42.2633 3.85952C42.4893 4.15039 43.1476 4.58183 43.7277 4.81618C44.4876 5.14523 44.4876 5.14523 45.1909 5.46925C45.7052 5.7258 45.8874 5.67136 45.6169 5.36272C45.2946 5.00616 45.2817 4.99195 44.97 4.6777C45.193 4.82329 45.414 4.97124 45.6325 5.12274C45.79 5.28313 45.86 5.35858 46.123 5.64265C46.3704 5.93323 46.9725 6.41704 47.3969 6.66768C47.9599 7.02276 47.9617 7.02365 48.509 7.3959C48.6401 7.51367 48.7699 7.63263 48.8989 7.75277L48.2418 7.37904C48.1075 7.29204 47.9662 7.20297 47.6894 7.02898C47.5815 6.96417 47.4898 6.9192 47.4167 6.89316C46.8991 6.59695 46.3671 6.30815 45.821 6.02644C45.6992 5.94833 45.5772 5.8779 45.4603 5.8202C44.9796 5.59827 44.8167 5.52281 44.5423 5.40356C44.4371 5.34645 44.2477 5.26508 43.9742 5.16003L43.9739 5.15973C43.9492 5.14997 43.9249 5.14079 43.9012 5.13192H43.9009L43.8942 5.12955C43.3787 4.93425 42.596 4.6629 41.5464 4.31581C41.4021 4.24804 41.2546 4.18945 41.1097 4.14418C40.2022 3.88141 40.2022 3.88141 39.2668 3.63759C38.5716 3.47395 38.1105 3.62634 38.2593 3.9906C38.4718 4.533 38.4718 4.533 38.6783 5.12363C38.8379 5.59324 39.6164 6.12735 40.3781 6.28743C40.9927 6.43184 41.2377 6.48924 41.5485 6.56736C43.7896 7.24795 45.145 7.6711 45.6151 7.8368L45.7948 7.90753L45.7951 7.90782C45.9204 7.95724 46.0208 7.99689 46.1104 8.03269L46.1122 8.03329C47.494 8.63516 48.8093 9.24414 50.0342 10.0017L50.0345 10.002L50.0369 10.0034C50.146 10.0724 50.2671 10.1499 50.4607 10.2742C51.256 10.7991 52.0111 11.396 52.7181 12.1059C52.813 12.2393 52.9071 12.3739 53 12.5092L52.4854 12.0925L52.4794 12.0872L52.3805 11.999C52.3685 11.9887 52.3568 11.9792 52.3453 11.9703C51.8857 11.5753 51.3742 11.1921 50.8109 10.821L50.7808 10.7997L50.6861 10.7397C50.5506 10.6521 50.412 10.5651 50.2707 10.4787L50.2575 10.4707L50.2503 10.4662L50.2443 10.4627L50.2311 10.4547L50.164 10.4142L50.1616 10.413L50.0784 10.363L50.0727 10.3594L50.0633 10.3538L50.0477 10.3446L50.0318 10.3351L50.0155 10.3254L49.999 10.3156L49.9831 10.3061L49.9819 10.3056L49.981 10.305L49.6545 10.1132C49.6281 10.0987 49.6028 10.0854 49.5782 10.0739C48.9299 9.71108 48.2271 9.36102 47.4699 9.0231C47.4149 8.99203 47.3602 8.96421 47.3061 8.93965L47.0088 8.81774C46.7849 8.70588 46.4395 8.56769 45.973 8.40287L45.7085 8.29901C45.6331 8.27208 45.5619 8.25226 45.4951 8.23894C44.8281 8.01642 43.9781 7.75395 42.9453 7.45183C42.8269 7.39738 42.706 7.35211 42.5855 7.31808C41.6871 7.08964 41.5969 7.06656 40.8313 6.89079L40.5482 6.82569C40.4529 6.80616 40.3612 6.79373 40.2738 6.78811C38.6819 6.49575 37.5667 6.29838 36.9283 6.196C36.8673 6.18239 36.8057 6.17114 36.7438 6.16197L36.5409 6.13711H36.5397H36.5394C36.4726 6.12794 36.4194 6.12143 36.3791 6.11729C35.5706 6.01816 35.4464 6.00514 34.3953 5.89625C33.5203 5.82286 32.8308 6.22529 32.8879 6.8103C32.9477 7.58469 32.9528 7.65068 33.0133 8.35198C33.0072 9.82589 31.963 10.5633 29.8806 10.5642H29.88C29.4793 10.5609 29.2229 10.5591 28.9663 10.5589C28.6242 10.5586 28.2818 10.5612 27.5974 10.566C26.5878 10.5879 25.7428 11.259 25.705 12.0751C25.6602 13.2134 25.6596 13.2333 25.6223 14.3808C25.5015 16.1666 24.3154 17.1271 22.0637 17.262C21.0992 17.3082 20.951 17.3171 19.7451 17.3881C18.7505 17.4621 17.9031 18.2942 17.8301 19.2674C17.7474 20.6161 17.7474 20.6161 17.6729 22.0007C17.6717 22.0267 17.6714 22.0525 17.6714 22.0782C17.5037 24.1573 16.4083 25.2548 14.3857 25.3711L14.0028 25.3817H14.0025L13.9391 25.3835L13.9066 25.3844L13.6376 25.3918L13.609 25.3927L13.5982 25.393C13.2898 25.4024 12.9938 25.4146 12.3902 25.4391C11.5555 25.4794 10.872 26.3073 10.8515 27.2942C10.8428 28.6536 10.8428 28.6536 10.8572 30.0109C10.8819 30.9998 11.5669 31.8201 12.4013 31.8642C13.0046 31.887 13.3 31.8982 13.6087 31.9083L13.6184 31.9086L13.6469 31.9094L13.6755 31.9103L13.7043 31.9112L13.7335 31.9121L14.0993 31.9242H14.102L14.5562 31.9387C16.6596 32.0574 17.4748 32.8922 17.672 34.9481C17.6723 34.9653 17.6726 34.9824 17.6735 34.9999L17.7204 35.8639V35.8645C17.754 36.4806 17.7703 36.7446 17.831 37.7335C17.9037 38.7067 18.7514 39.5388 19.746 39.6128C20.927 39.6826 21.0932 39.6921 22.0051 39.7362H22.0057L22.0562 39.7386L22.1082 39.7409L22.1254 39.7418C24.3082 39.8637 25.4768 40.9027 25.6307 42.8589L25.6479 43.3865V43.3868C25.6641 43.8724 25.6737 44.1165 25.7053 44.9258C25.7434 45.7419 26.5881 46.413 27.5977 46.4349C28.8815 46.4441 28.9611 46.4447 30.0949 46.4349C32.1061 46.4971 33.0737 47.2987 32.9973 48.8401L32.9745 49.1087V49.1099C32.9465 49.4393 32.9321 49.6281 32.8888 50.1903C32.8317 50.7753 33.5212 51.1774 34.3962 51.1043C35.588 50.9807 35.588 50.9807 36.7447 50.8383C36.8559 50.8221 36.9662 50.7984 37.0738 50.7682C38.5355 50.5424 39.6816 50.3471 40.5124 50.182L40.5377 50.177L40.5488 50.1746C41.0751 50.0696 41.4722 49.9766 41.7397 49.8965C42.0084 49.8314 42.2744 49.7642 42.5374 49.6946L42.5861 49.6822L42.6075 49.676C43.6478 49.3987 44.6424 49.0863 45.5916 48.7386C45.6295 48.7282 45.6689 48.7158 45.7094 48.7013L46.1732 48.519L46.1792 48.5166L46.2039 48.5069L46.2279 48.4974C46.3118 48.4646 46.3954 48.4314 46.4786 48.398L46.4976 48.3906C46.7119 48.3048 46.9018 48.2269 47.3073 48.0606C47.3599 48.037 47.4131 48.0097 47.4666 47.9796C48.191 47.6564 48.8848 47.3102 49.5484 46.9403C49.5821 46.9255 49.6179 46.9081 49.6555 46.8871C50.0354 46.6646 50.167 46.5876 50.3648 46.4642L50.3669 46.463L50.3672 46.4627L50.3675 46.4625C50.4718 46.3974 50.5948 46.3195 50.7817 46.2006C50.8506 46.1529 50.9233 46.0943 50.9975 46.0278C51.3943 45.7458 51.8109 45.4351 52.2473 45.0954C52.2843 45.0761 52.3291 45.0451 52.3814 45.001L52.4803 44.9128C52.6483 44.7802 52.8191 44.6435 52.9928 44.503C52.8825 44.6636 52.7704 44.8234 52.6564 44.9817C52.5539 45.0788 52.4866 45.1412 52.3868 45.2312L52.3862 45.2318C52.3177 45.2933 52.2338 45.3682 52.113 45.4759C52.076 45.5073 52.0366 45.5428 51.9958 45.5818C51.571 45.9464 51.0976 46.3032 50.5752 46.6518C50.5527 46.6657 50.5289 46.6814 50.5037 46.6989C50.2767 46.8448 50.1448 46.9294 50.0243 47.0051C48.8854 47.7088 47.5415 48.3784 45.9926 49.0144L45.7371 49.1153C45.0307 49.368 43.615 49.8118 41.4893 50.4471C41.2053 50.5179 40.9537 50.577 40.3796 50.712C39.6176 50.8718 38.8394 51.4062 38.6795 51.8758C38.4733 52.4661 38.4733 52.4661 38.2608 53.0088C38.1123 53.3731 38.5731 53.5255 39.2683 53.3618C40.0721 53.1523 40.1851 53.1227 40.7766 52.952H40.7769L41.1112 52.8552C41.214 52.823 41.3183 52.7842 41.4217 52.7401C42.4857 52.3874 43.3231 52.0927 43.9333 51.8559L43.9751 51.8397L43.9754 51.8394C44.3634 51.6879 44.6565 51.5609 44.8546 51.4582L44.9463 51.4168L44.9475 51.4162C45.0779 51.3568 45.2342 51.2845 45.4615 51.1795C45.57 51.1256 45.6833 51.0611 45.7966 50.9895C46.3413 50.7084 46.8955 50.409 47.4594 50.0909C47.5246 50.0639 47.6022 50.024 47.6906 49.971L47.8947 49.8426C48.2241 49.6529 48.5565 49.457 48.892 49.2546C48.7657 49.3724 48.6386 49.4887 48.5099 49.6041C47.9626 49.9763 47.9608 49.9775 47.3978 50.3323C46.9734 50.583 46.3713 51.0668 46.1239 51.3573C45.8609 51.6414 45.7909 51.7169 45.6334 51.8773C45.4149 52.0288 45.1936 52.1767 44.9709 52.3223C45.2826 52.008 45.2955 51.9938 45.6178 51.6373C45.8883 51.3289 45.7064 51.2742 45.1918 51.5307C44.4885 51.8548 44.4885 51.8548 43.7286 52.1838C43.1485 52.4182 42.4902 52.8496 42.2642 53.1405C41.9729 53.4985 41.9729 53.4985 41.6895 53.8211C41.4523 54.0528 41.7364 54.043 42.2726 53.8237C42.6195 53.6734 42.7926 53.5983 42.9618 53.5222C42.067 54.009 41.1436 54.4511 40.1938 54.8443C40.1671 54.7887 39.9016 54.8283 39.4679 54.9701C38.6663 55.2109 38.6663 55.2109 37.8598 55.4296C37.2454 55.5823 36.6283 55.8258 36.4889 55.9694C36.3903 56.059 36.3422 56.1028 36.2959 56.1439C36.0771 56.2002 35.8573 56.2534 35.6364 56.3046C35.6944 56.2528 35.7332 56.2135 35.8387 56.1069C35.9526 55.9697 35.5327 55.9448 34.8838 56.0581C34.007 56.191 34.007 56.191 33.0998 56.3055C32.4184 56.3768 31.8049 56.5443 31.7601 56.6736C31.691 56.8228 31.6883 56.8281 31.6213 56.9461C31.4079 56.9654 31.1936 56.9825 30.9789 56.997C31.0255 56.8736 31.0261 56.8716 31.0721 56.7213C31.1199 56.5916 30.5987 56.5032 29.9152 56.5274C28.9753 56.5402 28.9753 56.5402 28.0354 56.5289C27.3521 56.5058 26.8309 56.5949 26.8502 56.7227C26.9244 56.8748 26.9256 56.8772 26.9722 57C26.7477 56.9852 26.524 56.9677 26.301 56.9476C26.2337 56.8296 26.2313 56.8242 26.1618 56.6754C26.1171 56.5464 25.5033 56.3792 24.8501 56.3123C23.9427 56.199 23.9427 56.199 23.0379 56.0617C22.389 55.9486 21.9691 55.9738 22.1109 56.1176C22.2167 56.2244 22.2555 56.2635 22.3066 56.3138C22.0809 56.2617 21.8563 56.2073 21.633 56.1502C21.5861 56.109 21.5449 56.067 21.4608 55.9812C21.321 55.8377 20.7033 55.5953 20.0889 55.4438C19.2548 55.2169 19.2548 55.2169 18.4532 54.9763C18.0399 54.8434 17.7646 54.7993 17.7312 54.8523C16.7808 54.4593 15.8565 54.0178 14.9604 53.5317C15.1336 53.6095 15.313 53.6876 15.6737 53.8447C16.1844 54.0507 16.4685 54.0602 16.2568 53.8412C15.9473 53.5062 15.9473 53.5062 15.656 53.1485C15.43 52.8576 14.7711 52.4268 14.191 52.1927C13.4545 51.8796 13.4545 51.8796 12.7271 51.5405C12.2357 51.3008 12.0538 51.3556 12.3015 51.6473C12.6234 52.0033 12.6367 52.0178 12.9478 52.3315C12.725 52.1862 12.5038 52.0382 12.2853 51.8867C12.1296 51.7281 12.0641 51.6556 11.8182 51.3849C11.5477 51.0774 10.9675 50.612 10.5206 50.3436C9.9564 49.9885 9.9555 49.9879 9.42678 49.6334C8.79436 49.0667 8.18839 48.472 7.60887 47.8526C7.23014 47.3173 7.22834 47.3147 6.86614 46.7625C6.60975 46.3456 6.11619 45.7549 5.81982 45.5129C5.52135 45.2475 5.44861 45.1829 5.27427 45.0184C5.12007 44.8045 4.96948 44.5876 4.821 44.3692C5.15524 44.687 5.16516 44.6956 5.53397 45.0155C5.84868 45.2803 5.90368 45.1004 5.64158 44.595C5.31034 43.9034 5.31034 43.9034 4.97429 43.1563C4.74886 42.6097 4.29408 41.9398 3.99681 41.7191C3.631 41.4344 3.631 41.4344 3.28864 41.1323C3.06441 40.9254 3.07463 41.2057 3.28564 41.7072C3.46328 42.0978 3.54233 42.2718 3.631 42.4597C3.12062 41.5652 2.65742 40.6411 2.24563 39.69C2.30905 39.6732 2.26577 39.3974 2.1242 38.9766C1.87682 38.1886 1.87682 38.1886 1.64297 37.3686C1.48667 36.7644 1.23689 36.1581 1.0893 36.0217C0.988306 35.916 0.944121 35.8696 0.897531 35.8199C0.839819 35.6047 0.784813 35.3884 0.731911 35.1712C0.791727 35.2357 0.8299 35.2712 0.948028 35.3822C1.09651 35.521 1.12146 35.1073 1.00424 34.469C0.861461 33.5789 0.861461 33.5789 0.742732 32.6868C0.66879 32.0166 0.49806 31.4416 0.361898 31.3703C0.202591 31.3008 0.20229 31.3005 0.0673298 31.228C0.0462893 31.009 0.0273527 30.7897 0.0111214 30.5693C0.0135261 30.5708 0.0156301 30.5716 0.0180348 30.5722C0.153596 30.648 0.153596 30.648 0.3114 30.693C0.445459 30.7391 0.535633 30.226 0.509182 29.554C0.493552 28.6296 0.493552 28.6296 0.50287 27.6718C0.525113 26.9995 0.433135 26.4591 0.299077 26.5062C0.140972 26.5523 0.140972 26.5523 0.00751449 26.6006C0.00510985 26.6012 0.00240464 26.6023 0 26.6041C0.0186359 26.3263 0.0405782 26.0493 0.0670293 25.7738C0.201989 25.7013 0.20229 25.7013 0.361597 25.6315C0.49806 25.5602 0.668489 24.9852 0.742432 24.3153C0.861161 23.4231 0.861161 23.4231 1.00394 22.533C1.12116 21.8951 1.09621 21.4814 0.947728 21.6199C0.8296 21.7305 0.791727 21.766 0.731611 21.8308C0.784513 21.6136 0.839519 21.3973 0.89723 21.1822C0.943519 21.1322 0.988005 21.086 1.089 20.9804C1.23658 20.844 1.48637 20.2377 1.64267 19.6334C1.87652 18.8135 1.87652 18.8135 2.1239 18.0255C2.26547 17.605 2.30875 17.3292 2.24533 17.3123C2.65712 16.3613 3.12062 15.4372 3.6307 14.5427C3.54203 14.7303 3.46268 14.9045 3.28534 15.2951C3.07433 15.797 3.06411 16.0769 3.28834 15.8701C3.6307 15.5677 3.6307 15.5677 3.99651 15.2833C4.29348 15.0626 4.74856 14.3926 4.97399 13.8458C5.31004 13.0986 5.31004 13.0986 5.64128 12.4071C5.90368 11.9017 5.84838 11.7218 5.53367 11.9866C5.16486 12.3065 5.15524 12.3148 4.8207 12.6329C4.96918 12.4145 5.11977 12.1979 5.27397 11.9836C5.44831 11.8191 5.52105 11.7546 5.81952 11.4892C6.11589 11.2471 6.60975 10.6565 6.86584 10.2396C7.22804 9.68741 7.22984 9.68474 7.60857 9.14945C8.18809 8.53012 8.79406 7.93534 9.42648 7.36868C9.9552 7.01448 9.9561 7.01359 10.5203 6.6585C10.9672 6.39011 11.5474 5.92465 11.8179 5.61721C12.0638 5.34645 12.1293 5.27395 12.285 5.11535C12.5035 4.96414 12.7247 4.81589 12.9475 4.6706C12.6361 4.98426 12.6231 4.99876 12.3012 5.35474C12.0535 5.6465 12.2354 5.70124 12.7268 5.46156C13.4542 5.12274 13.4542 5.12274 14.1907 4.80938C14.7711 4.57532 15.4297 4.14447 15.6557 3.8536C15.9473 3.49555 15.9473 3.49555 16.2565 3.16088C16.4682 2.94191 16.1841 2.95138 15.6734 3.15733C15.3127 3.31446 15.1333 3.39258 14.9601 3.4704C15.8559 2.98393 16.7805 2.54214 17.7309 2.14947C17.7643 2.20244 18.0396 2.15864 18.4529 2.02548C19.2545 1.78491 19.2545 1.78491 20.0886 1.55795C20.703 1.40615 21.3207 1.1638 21.4605 1.02058C21.5446 0.934771 21.5858 0.892752 21.6327 0.851325C21.8563 0.794215 22.0809 0.739768 22.3063 0.687688C22.2552 0.737992 22.2164 0.777052 22.1106 0.883875C21.9688 1.02798 22.3884 1.05313 23.0376 0.939801C23.9427 0.8025 23.9427 0.8025 24.8498 0.689168C25.503 0.622293 26.1168 0.455401 26.1615 0.32609C26.2307 0.176952 26.2331 0.171626 26.3007 0.0538551C26.5234 0.0325498 26.7474 0.0147954 26.9716 0C26.925 0.122801 26.9238 0.125169 26.8496 0.277561C26.8303 0.405097 27.3512 0.494165 28.0348 0.471084C28.9747 0.45984 28.9747 0.45984 29.9146 0.472564C30.5978 0.496828 31.119 0.408352 31.0715 0.278449C31.0255 0.128424 31.0249 0.126056 30.9783 0.00295907Z" fill="url(#paint0_linear)"/>
<defs>
<linearGradient id="paint0_linear" x1="25.0778" y1="45.8875" x2="51.2293" y2="4.63318" gradientUnits="userSpaceOnUse">
<stop stop-color="#91AAFF"/>
<stop offset="1" stop-color="#00E4FF"/>
</linearGradient>
</defs>
</svg>
