<svg width="44" height="44" viewBox="0 0 44 44" fill="none" xmlns="http://www.w3.org/2000/svg">
<path d="M32.7424 43.599H11.398C5.35783 43.599 0.456177 38.6747 0.456177 32.6065V11.1634C0.456177 5.09525 5.35783 0.170898 11.398 0.170898H32.7424C38.7826 0.170898 43.6842 5.09525 43.6842 11.1634V32.6065C43.6842 38.6747 38.7826 43.599 32.7424 43.599Z" fill="#FF0000"/>
<path d="M33.4974 19.2664C33.4974 16.425 31.1964 14.1133 28.3681 14.1133H15.257C12.4287 14.1133 10.1277 16.425 10.1277 19.2664V25.3948C10.1277 28.2362 12.4167 30.5479 15.257 30.5479H28.3681C31.1964 30.5479 33.4974 28.2482 33.4974 25.3948V19.2664ZM25.7914 22.7942L19.919 25.7199C19.6913 25.8403 18.9003 25.6717 18.9003 25.4189V19.4229C18.9003 19.158 19.6913 18.9895 19.919 19.1219L25.5397 22.1922C25.7794 22.3246 26.0311 22.6617 25.7914 22.7942Z" fill="white"/>
</svg>
