<svg width="21" height="15" viewBox="0 0 21 15" fill="none" xmlns="http://www.w3.org/2000/svg">
<path d="M12.76 4.25L16.5 4.25C17.88 4.25 19 5.37 19 6.75C19 8.13 17.88 9.25 16.5 9.25L12.76 9.25C13.57 10.46 14.94 11.25 16.5 11.25C18.99 11.25 21 9.24 21 6.75C21 4.26 18.99 2.25 16.5 2.25C14.94 2.25 13.57 3.04 12.76 4.25ZM8.13 14.09L10.39 9.55C10.46 9.38 10.5 9.2 10.5 9.01L10.5 8.25L16.5 8.25C17.33 8.25 18 7.58 18 6.75C18 5.92 17.33 5.25 16.5 5.25L5.76 5.25L6.48 1.82C6.49 1.74 6.51 1.67 6.51 1.58C6.51 1.27 6.38 0.989999 6.18 0.789999L5.38 -6.82772e-07L0.44 4.94C0.17 5.21 -2.44347e-07 5.59 -2.62268e-07 6L-5.59069e-07 12.79C-5.91852e-07 13.54 0.550001 14.12 1.28 14.23L6.55 14.98C6.62 14.99 6.69 15 6.75 15C7.37 15 7.91 14.62 8.13 14.09Z" fill="#009594"/>
</svg>
