<svg width="11" height="11" viewBox="0 0 11 11" fill="none" xmlns="http://www.w3.org/2000/svg">
<path d="M7.56528 7.60055C7.56074 7.57377 7.55847 7.54602 7.55847 7.51794C7.55847 7.41438 7.5891 7.31829 7.6421 7.23763C7.581 7.15095 7.522 7.06233 7.4664 6.97208C7.0184 6.24704 6.73881 5.40675 6.68403 4.50576C6.59212 4.4819 6.508 4.43873 6.43636 4.38143C5.94395 4.78348 5.49481 5.24314 5.09641 5.75069C4.66413 6.30174 4.2915 6.91008 3.99051 7.56241C4.08987 7.65282 4.15308 7.78202 4.15746 7.92582C4.56007 8.031 4.98263 8.08716 5.41815 8.08716C6.18708 8.08716 6.91516 7.91252 7.56528 7.60055ZM2.69676 9.73819C2.77326 9.6671 2.87148 9.61906 2.9804 9.6051C3.02141 9.39864 3.06906 9.19461 3.12271 8.99335C3.18171 8.77049 3.24865 8.55121 3.32256 8.33566C3.20829 8.24201 3.13584 8.09982 3.13584 7.9406L3.13714 7.90667C2.84733 7.76822 2.57211 7.60445 2.31407 7.41779C1.59248 6.89661 1.00703 6.1977 0.620782 5.38549C0.614947 5.48336 0.612192 5.58189 0.612192 5.68138C0.612192 7.05778 1.1696 8.30417 2.06998 9.20581C2.26383 9.4001 2.47324 9.57832 2.69676 9.73819ZM1.01448 4.83574C0.995683 4.94644 0.941871 5.04496 0.864557 5.11946C1.22422 5.93362 1.79557 6.63318 2.50825 7.14803C2.74554 7.31959 2.99953 7.47103 3.26648 7.59893C3.36 7.49489 3.49551 7.42931 3.64657 7.42931L3.68433 7.43061C3.99683 6.75053 4.38438 6.11784 4.83416 5.54456C5.25023 5.01461 5.72076 4.53449 6.23521 4.11492L6.2216 4.0784L6.10457 4.0797C5.38119 4.0797 4.6912 3.93475 4.06264 3.67213C3.96976 3.76708 3.84026 3.82617 3.69698 3.82617C3.60475 3.82617 3.5182 3.80166 3.44364 3.75881C2.74652 4.31862 1.91664 4.69908 1.01448 4.83574ZM2.16998 2.33355C2.13854 2.33972 2.10661 2.34264 2.0737 2.34264C2.01876 2.34264 1.96608 2.3342 1.91648 2.31797C1.3996 2.88346 1.01157 3.56858 0.798102 4.32771C0.865205 4.37332 0.920638 4.43467 0.9597 4.50657C1.79978 4.38062 2.57325 4.02792 3.22402 3.50836C3.1997 3.44895 3.18625 3.38338 3.18625 3.31488C3.18625 3.27966 3.18982 3.24542 3.19662 3.21214C2.81799 2.96364 2.47259 2.66807 2.16998 2.33355ZM4.96836 0.956988C4.88765 0.911216 4.82038 0.844344 4.77435 0.763513C3.9555 0.898556 3.20408 1.23389 2.57146 1.71758C2.58005 1.7541 2.58443 1.79224 2.58443 1.83152C2.58443 1.95715 2.53905 2.07207 2.46416 2.16101C2.7329 2.44944 3.03632 2.70622 3.36681 2.92469C3.45547 2.84905 3.5712 2.8036 3.69681 2.8036C3.77251 2.8036 3.84415 2.82 3.9085 2.8497C4.37433 2.3105 4.73869 1.66759 4.96836 0.956988ZM7.44193 1.42152C7.36932 1.33306 7.32523 1.21945 7.32523 1.09593C7.32523 1.06687 7.32782 1.03847 7.33236 1.01104C6.82131 0.81951 6.2699 0.70995 5.69483 0.697777C5.62999 0.863821 5.48039 0.987827 5.29918 1.01623C5.05508 1.79192 4.65927 2.49278 4.15016 3.07888C4.18696 3.14933 4.20787 3.22967 4.20787 3.31472C4.20787 3.33339 4.20641 3.35157 4.20462 3.36958C4.78991 3.61159 5.43144 3.7455 6.10457 3.7455L6.1934 3.74452C6.24202 3.45642 6.47396 3.23064 6.76507 3.19218C6.81061 2.95001 6.87253 2.71417 6.94919 2.48434C7.07465 2.10972 7.24078 1.75345 7.44193 1.42152ZM9.16683 2.69161C9.1362 2.62571 9.11869 2.55202 9.11869 2.47427C9.11869 2.38581 9.14154 2.30271 9.18077 2.23L9.10913 2.15696C8.8391 1.88638 8.53778 1.64649 8.21086 1.4436C8.11766 1.54455 7.98426 1.60786 7.83596 1.60786C7.79819 1.60786 7.76091 1.60347 7.72606 1.59585C7.5374 1.90716 7.38196 2.24055 7.26461 2.59033C7.19475 2.79809 7.13867 3.01266 7.09669 3.23178C7.25343 3.29281 7.38115 3.41097 7.45473 3.56079C7.62184 3.51372 7.78522 3.45837 7.94423 3.39474C8.38688 3.21831 8.79809 2.98036 9.16683 2.69161ZM10.1943 4.5095C10.0636 4.41682 9.97822 4.26408 9.97822 4.09187C9.97822 3.93556 10.0481 3.79533 10.1588 3.70167C10.0479 3.44522 9.91598 3.19981 9.76541 2.9677C9.72181 2.97955 9.67626 2.98604 9.62942 2.98604C9.54659 2.98604 9.46831 2.96608 9.39942 2.93118C8.99826 3.24996 8.54978 3.51177 8.06709 3.70427C7.89009 3.7752 7.70823 3.83623 7.52281 3.88768C7.50936 4.18796 7.29913 4.43662 7.01808 4.50771C7.07286 5.34459 7.33317 6.12449 7.74892 6.79711C7.79884 6.87762 7.85054 6.95666 7.90468 7.03392C7.95639 7.01623 8.01149 7.00649 8.06936 7.00649C8.18541 7.00649 8.29174 7.04529 8.37764 7.11053C8.45026 7.05632 8.52157 7.00065 8.59143 6.94271C9.34512 6.31748 9.91144 5.47363 10.1943 4.5095ZM9.24949 9.05989C9.1819 8.97306 9.14154 8.86366 9.14154 8.74533C9.14154 8.7205 9.143 8.69632 9.14657 8.67262C8.83326 8.47395 8.54232 8.24331 8.27796 7.98507C8.2141 8.0138 8.14375 8.02938 8.06952 8.02938C7.93612 8.02938 7.81505 7.97858 7.72412 7.89499C7.02667 8.23243 6.24429 8.42136 5.41799 8.42136C4.94794 8.42136 4.49151 8.36001 4.05729 8.24477C3.96409 8.3704 3.81497 8.45236 3.64673 8.45236L3.63457 8.45204C3.56472 8.65736 3.50118 8.86626 3.44461 9.0784C3.39242 9.27382 3.34639 9.47233 3.30652 9.67343C3.45547 9.76286 3.55548 9.92599 3.55548 10.1126C3.55548 10.1518 3.5511 10.1896 3.54283 10.2261C4.16718 10.5087 4.86009 10.666 5.58963 10.666C6.96411 10.666 8.20875 10.1076 9.10913 9.20597C9.15694 9.15842 9.20362 9.1094 9.24949 9.05989ZM9.65211 8.23357C9.7197 8.23357 9.78486 8.24688 9.84353 8.27074C10.3024 7.51599 10.5674 6.62944 10.5674 5.68155C10.5674 5.35481 10.5358 5.03587 10.4761 4.72716C10.163 5.70508 9.57512 6.55997 8.80392 7.19981C8.72564 7.26473 8.6454 7.32771 8.56339 7.38809C8.57457 7.42948 8.58008 7.47298 8.58008 7.51794C8.58008 7.60396 8.55853 7.68528 8.52109 7.75653C8.75886 7.9875 9.01998 8.19477 9.30006 8.37478C9.3918 8.28745 9.51563 8.23357 9.65211 8.23357ZM5.70844 0.364064C6.337 0.377699 6.9385 0.501218 7.49493 0.715144C7.58554 0.633826 7.70515 0.584646 7.83612 0.584646C8.11798 0.584646 8.34701 0.813667 8.34701 1.09593L8.34555 1.13374C8.71024 1.35562 9.04575 1.62035 9.34561 1.92063L9.42746 2.00438C9.4897 1.9776 9.55794 1.96299 9.62974 1.96299C9.91193 1.96299 10.1403 2.19218 10.1403 2.47427C10.1403 2.58822 10.1034 2.69307 10.0408 2.77812C10.206 3.03181 10.3496 3.29995 10.4706 3.58075L10.4894 3.5801C10.7713 3.5801 11 3.80928 11 4.09171C11 4.26895 10.9105 4.42493 10.7736 4.51664C10.8572 4.89141 10.9015 5.28145 10.9015 5.68155C10.9015 6.71466 10.6066 7.67879 10.0982 8.49505C10.1395 8.56906 10.1633 8.65476 10.1633 8.74533C10.1633 9.02759 9.93462 9.25661 9.65243 9.25661C9.61191 9.25661 9.5722 9.25207 9.5346 9.24298C9.47333 9.31115 9.41028 9.3777 9.34561 9.44262C8.38477 10.4046 7.05649 11 5.5898 11C4.79477 11 4.04092 10.8255 3.36373 10.5119C3.27604 10.582 3.16566 10.6241 3.04459 10.6241C2.76272 10.6241 2.53402 10.3947 2.53402 10.1125C2.53402 10.0863 2.53613 10.0612 2.53953 10.0362C2.28749 9.85895 2.0515 9.66028 1.83398 9.44262C0.873147 8.48028 0.278461 7.1503 0.278461 5.68155C0.278461 5.52475 0.285268 5.36942 0.298721 5.21587C0.122374 5.13504 0 4.95715 0 4.75069C0 4.47979 0.209899 4.25856 0.475879 4.24071C0.700203 3.43986 1.1072 2.71547 1.64904 2.11573C1.5941 2.03457 1.56298 1.9367 1.56298 1.83152C1.56298 1.54894 1.79168 1.31992 2.07387 1.31992C2.19511 1.31992 2.30629 1.36244 2.39398 1.43321C3.06209 0.928421 3.85306 0.577991 4.71405 0.434994C4.75085 0.188768 4.96302 1.28697e-07 5.21911 1.28697e-07C5.44975 -0.000162183 5.64507 0.153222 5.70844 0.364064Z" fill="url(#paint0_linear)"/>
<defs>
<linearGradient id="paint0_linear" x1="5.20482" y1="8.85548" x2="10.087" y2="0.572578" gradientUnits="userSpaceOnUse">
<stop stop-color="#91AAFF"/>
<stop offset="1" stop-color="#00E4FF"/>
</linearGradient>
</defs>
</svg>
