<svg width="31" height="30" viewBox="0 0 31 30" fill="none" xmlns="http://www.w3.org/2000/svg">
<mask id="mask0" style="mask-type:alpha" maskUnits="userSpaceOnUse" x="1" y="1" width="29" height="28">
<path fill-rule="evenodd" clip-rule="evenodd" d="M4.50735 27.3409C4.99443 26.8538 4.99443 26.0641 4.50735 25.577C4.02027 25.09 3.23055 25.09 2.74347 25.577C2.25639 26.0641 2.25639 26.8538 2.74347 27.3409C3.23055 27.828 4.02027 27.828 4.50735 27.3409ZM5.38929 28.2229C6.36345 27.2487 6.36345 25.6693 5.38929 24.6951C4.41512 23.7209 2.83569 23.7209 1.86153 24.6951C0.887371 25.6693 0.887371 27.2487 1.86153 28.2229C2.83569 29.197 4.41512 29.197 5.38929 28.2229Z" fill="#C4C4C4"/>
<path fill-rule="evenodd" clip-rule="evenodd" d="M27.439 4.40928C27.9261 3.9222 27.9261 3.13249 27.439 2.64541C26.9519 2.15832 26.1622 2.15832 25.6751 2.64541C25.188 3.13249 25.188 3.9222 25.6751 4.40928C26.1622 4.89636 26.9519 4.89636 27.439 4.40928ZM28.3209 5.29122C29.2951 4.31706 29.2951 2.73763 28.3209 1.76347C27.3468 0.789305 25.7673 0.789305 24.7932 1.76347C23.819 2.73763 23.819 4.31706 24.7932 5.29122C25.7673 6.26538 27.3468 6.26538 28.3209 5.29122Z" fill="#C4C4C4"/>
<path fill-rule="evenodd" clip-rule="evenodd" d="M26.5554 5.29267L5.38888 26.4592L3.625 24.6953L24.7915 3.52879L26.5554 5.29267Z" fill="#C4C4C4"/>
<path fill-rule="evenodd" clip-rule="evenodd" d="M2.64541 4.40969C3.13249 4.89677 3.9222 4.89677 4.40928 4.40969C4.89636 3.92261 4.89636 3.1329 4.40928 2.64581C3.9222 2.15873 3.13249 2.15873 2.64541 2.64581C2.15832 3.1329 2.15832 3.92261 2.64541 4.40969ZM1.76347 5.29163C2.73763 6.26579 4.31706 6.26579 5.29122 5.29163C6.26538 4.31747 6.26538 2.73804 5.29122 1.76388C4.31706 0.789715 2.73763 0.789715 1.76347 1.76388C0.789305 2.73804 0.789305 4.31747 1.76347 5.29163Z" fill="#C4C4C4"/>
<path fill-rule="evenodd" clip-rule="evenodd" d="M25.577 27.3413C26.0641 27.8284 26.8538 27.8284 27.3409 27.3413C27.828 26.8543 27.828 26.0645 27.3409 25.5775C26.8538 25.0904 26.0641 25.0904 25.577 25.5775C25.09 26.0645 25.09 26.8543 25.577 27.3413ZM24.6951 28.2233C25.6693 29.1974 27.2487 29.1974 28.2229 28.2233C29.197 27.2491 29.197 25.6697 28.2229 24.6955C27.2487 23.7214 25.6693 23.7214 24.6951 24.6955C23.7209 25.6697 23.7209 27.2491 24.6951 28.2233Z" fill="#C4C4C4"/>
<path fill-rule="evenodd" clip-rule="evenodd" d="M24.6937 26.4577L3.52714 5.29122L5.29102 3.52734L26.4575 24.6939L24.6937 26.4577Z" fill="#C4C4C4"/>
</mask>
<g mask="url(#mask0)">
<rect width="30.0119" height="29.1544" fill="url(#paint0_linear)"/>
</g>
<defs>
<linearGradient id="paint0_linear" x1="14.2006" y1="23.4706" x2="26.9558" y2="1.19403" gradientUnits="userSpaceOnUse">
<stop stop-color="#91AAFF"/>
<stop offset="1" stop-color="#00E4FF"/>
</linearGradient>
</defs>
</svg>
