<svg width="20" height="20" viewBox="0 0 20 20" fill="none" xmlns="http://www.w3.org/2000/svg">
<mask id="mask0" style="mask-type:alpha" maskUnits="userSpaceOnUse" x="0" y="0" width="20" height="20">
<path d="M18.7281 9.60621L10.3948 1.27288C10.2907 1.16941 10.1499 1.11133 10.0031 1.11133C9.85635 1.11133 9.71554 1.16941 9.61145 1.27288L1.27812 9.60621C1.1871 9.71249 1.13954 9.8492 1.14495 9.98902C1.15035 10.1288 1.20831 10.2615 1.30725 10.3604C1.40619 10.4594 1.53882 10.5173 1.67864 10.5227C1.81846 10.5281 1.95517 10.4806 2.06145 10.3895L10.0003 2.45066L17.9392 10.3951C18.0455 10.4861 18.1822 10.5337 18.322 10.5283C18.4619 10.5229 18.5945 10.4649 18.6934 10.366C18.7924 10.267 18.8503 10.1344 18.8557 9.99458C18.8611 9.85476 18.8136 9.71805 18.7226 9.61177L18.7281 9.60621Z" fill="black"/>
<path d="M15.5562 17.7783H12.7784V12.2227H7.22287V17.7783H4.4451V10.0005L3.33398 11.1116V17.7783C3.33398 18.073 3.45105 18.3556 3.65942 18.564C3.86779 18.7723 4.15041 18.8894 4.4451 18.8894H8.33398V13.3339H11.6673V18.8894H15.5562C15.8509 18.8894 16.1335 18.7723 16.3419 18.564C16.5503 18.3556 16.6673 18.073 16.6673 17.7783V10.9783L15.5562 9.86719V17.7783Z" fill="black"/>
</mask>
<g mask="url(#mask0)">
<rect x="1" y="1" width="18" height="18" fill="url(#paint0_linear)"/>
</g>
<defs>
<linearGradient id="paint0_linear" x1="10.0002" y1="1" x2="10.0002" y2="18.9999" gradientUnits="userSpaceOnUse">
<stop stop-color="#EC2F5D"/>
<stop offset="0.1692" stop-color="#DA4772"/>
<stop offset="0.5273" stop-color="#AD85A8"/>
<stop offset="1" stop-color="#6ADFF6"/>
</linearGradient>
</defs>
</svg>
