<svg width="21" height="20" viewBox="0 0 21 20" fill="none" xmlns="http://www.w3.org/2000/svg">
<mask id="mask0" style="mask-type:alpha" maskUnits="userSpaceOnUse" x="0" y="0" width="21" height="20">
<path d="M10.3481 9.06619C12.2231 9.06619 13.6814 7.53841 13.6814 5.66341C13.6814 3.78841 12.1536 2.33008 10.2786 2.33008C8.40365 2.33008 6.94531 3.85786 6.94531 5.66341C6.94531 7.53841 8.47309 9.06619 10.3481 9.06619ZM10.2786 3.71897C10.3481 3.71897 10.3481 3.71897 10.2786 3.71897C11.3898 3.71897 12.2925 4.62174 12.2925 5.73286C12.2925 6.84397 11.3898 7.6773 10.2786 7.6773C9.16753 7.6773 8.3342 6.77452 8.3342 5.73286C8.3342 4.62174 9.23698 3.71897 10.2786 3.71897Z" fill="black"/>
<path d="M20.6257 8.64954C19.3062 7.46899 17.5701 6.84398 15.7645 6.91343H15.209C15.0701 7.46898 14.8618 7.9551 14.584 8.37176C15.0007 8.30232 15.3479 8.30232 15.7645 8.30232C17.084 8.23287 18.4034 8.64954 19.4451 9.41343V14.4134H20.834V8.85787L20.6257 8.64954Z" fill="black"/>
<path d="M14.1675 2.46962C14.5148 1.63628 15.487 1.21962 16.3898 1.56684C17.2231 1.91406 17.6398 2.88628 17.2925 3.78906C17.0148 4.41406 16.3898 4.83073 15.7648 4.83073C15.6259 4.83073 15.4175 4.83073 15.2786 4.76129C15.3481 5.10851 15.3481 5.45573 15.3481 5.73351V6.15017C15.487 6.15017 15.6259 6.21962 15.7648 6.21962C17.5009 6.21962 18.8898 4.83073 18.8898 3.16406C18.8898 1.42795 17.5009 0.0390625 15.8342 0.0390625C14.7231 0.0390625 13.7509 0.594618 13.1953 1.56684C13.5425 1.77517 13.8898 2.05295 14.1675 2.46962Z" fill="black"/>
<path d="M6.25 8.44208C5.97222 8.02542 5.76389 7.53931 5.625 6.98375H5.06944C3.26389 6.91431 1.52778 7.53931 0.208333 8.65042L0 8.85875V14.4143H1.38889V9.4143C2.5 8.65042 3.75 8.23375 5.06944 8.30319C5.48611 8.30319 5.90278 8.37264 6.25 8.44208Z" fill="black"/>
<path d="M5.06907 6.15001C5.20796 6.15001 5.34684 6.15001 5.48573 6.08057V5.6639C5.48573 5.31668 5.48573 4.96946 5.55518 4.69168C5.41629 4.76112 5.20796 4.76112 5.06907 4.76112C4.16629 4.76112 3.4024 3.99723 3.4024 3.09446C3.4024 2.19168 4.16629 1.42779 5.06907 1.42779C5.76351 1.42779 6.38851 1.84446 6.66629 2.46946C6.94407 2.12224 7.36073 1.77501 7.70796 1.49724C6.80518 0.0389021 4.93018 -0.447209 3.47184 0.455569C2.01351 1.35835 1.5274 3.23335 2.43018 4.69168C2.98573 5.59446 3.95796 6.15001 5.06907 6.15001Z" fill="black"/>
<path d="M16.0419 12.8173L15.903 12.609C14.5141 11.0812 12.5697 10.1784 10.4863 10.2479C8.40299 10.1784 6.38911 11.0812 5.00022 12.609L4.86133 12.8173V18.0951C4.86133 18.7201 5.34744 19.2757 6.04188 19.2757H14.9308C15.5558 19.2757 16.1113 18.7201 16.1113 18.0951V12.8173H16.0419ZM14.653 17.8868H6.25022V13.3034C7.36133 12.1923 8.88911 11.6368 10.4863 11.6368C12.0141 11.5673 13.5419 12.1923 14.653 13.3034V17.8868Z" fill="black"/>
</mask>
<g mask="url(#mask0)">
<rect x="-1" y="-1" width="22" height="22" fill="url(#paint0_linear)"/>
</g>
<defs>
<linearGradient id="paint0_linear" x1="10.0002" y1="-1" x2="10.0002" y2="20.9999" gradientUnits="userSpaceOnUse">
<stop stop-color="#EC2F5D"/>
<stop offset="0.1692" stop-color="#DA4772"/>
<stop offset="0.5273" stop-color="#AD85A8"/>
<stop offset="1" stop-color="#6ADFF6"/>
</linearGradient>
</defs>
</svg>
