<svg width="24" height="24" viewBox="0 0 24 24" fill="none" xmlns="http://www.w3.org/2000/svg">
<mask id="mask0" style="mask-type:alpha" maskUnits="userSpaceOnUse" x="0" y="0" width="24" height="24">
<path d="M7.20078 3.60039H16.8008C17.119 3.60039 17.4243 3.72682 17.6493 3.95186C17.8744 4.17691 18.0008 4.48213 18.0008 4.80039V10.8268C18.4124 10.864 18.8144 10.9396 19.2008 11.0488V4.80039C19.2008 4.16387 18.9479 3.55342 18.4978 3.10333C18.0478 2.65325 17.4373 2.40039 16.8008 2.40039H7.20078C6.56426 2.40039 5.95381 2.65325 5.50372 3.10333C5.05364 3.55342 4.80078 4.16387 4.80078 4.80039V19.2004C4.80078 19.8369 5.05364 20.4474 5.50372 20.8974C5.95381 21.3475 6.56426 21.6004 7.20078 21.6004H12.3092C12.0035 21.2302 11.7392 20.8279 11.5208 20.4004H7.20078C6.88252 20.4004 6.5773 20.274 6.35225 20.0489C6.12721 19.8239 6.00078 19.5187 6.00078 19.2004H11.0492C10.9381 18.8081 10.8638 18.4064 10.8272 18.0004H6.00078V4.80039C6.00078 4.48213 6.12721 4.17691 6.35225 3.95186C6.5773 3.72682 6.88252 3.60039 7.20078 3.60039Z" fill="black"/>
<path d="M8.40117 4.80078C8.08291 4.80078 7.77769 4.92721 7.55264 5.15225C7.3276 5.3773 7.20117 5.68252 7.20117 6.00078V7.20078C7.20117 7.51904 7.3276 7.82426 7.55264 8.04931C7.77769 8.27435 8.08291 8.40078 8.40117 8.40078H15.6012C15.9194 8.40078 16.2247 8.27435 16.4497 8.04931C16.6747 7.82426 16.8012 7.51904 16.8012 7.20078V6.00078C16.8012 5.68252 16.6747 5.3773 16.4497 5.15225C16.2247 4.92721 15.9194 4.80078 15.6012 4.80078H8.40117ZM15.6012 6.00078V7.20078H8.40117V6.00078H15.6012Z" fill="black"/>
<path d="M22.8 17.4C22.8 18.8322 22.2311 20.2057 21.2184 21.2184C20.2057 22.2311 18.8322 22.8 17.4 22.8C15.9678 22.8 14.5943 22.2311 13.5816 21.2184C12.5689 20.2057 12 18.8322 12 17.4C12 15.9678 12.5689 14.5943 13.5816 13.5816C14.5943 12.5689 15.9678 12 17.4 12C18.8322 12 20.2057 12.5689 21.2184 13.5816C22.2311 14.5943 22.8 15.9678 22.8 17.4ZM16.824 15.0408C16.7462 14.9874 16.6558 14.9552 16.5617 14.9474C16.4676 14.9396 16.3731 14.9565 16.2876 14.9964C16.2178 15.0271 16.1546 15.0711 16.1016 15.126C15.9898 15.2406 15.9273 15.3943 15.9276 15.5544V19.2444C15.9269 19.3239 15.9419 19.4028 15.9717 19.4766C16.0016 19.5503 16.0457 19.6174 16.1016 19.674C16.1564 19.7285 16.2201 19.7731 16.29 19.806C16.4118 19.8618 16.5499 19.8703 16.6776 19.83C16.7329 19.8118 16.7854 19.7859 16.8336 19.7532L19.5888 17.8728C19.6726 17.8176 19.7402 17.7409 19.7844 17.6508C19.83 17.56 19.8534 17.4597 19.8528 17.3582C19.8522 17.2566 19.8275 17.1566 19.7808 17.0664C19.7339 16.9776 19.6649 16.9024 19.5804 16.848L16.824 15.0408Z" fill="black"/>
</mask>
<g mask="url(#mask0)">
<rect x="1" y="1" width="24" height="24" fill="url(#paint0_linear)"/>
</g>
<defs>
<linearGradient id="paint0_linear" x1="13.0002" y1="1" x2="13.0002" y2="24.9999" gradientUnits="userSpaceOnUse">
<stop stop-color="#EC2F5D"/>
<stop offset="0.1692" stop-color="#DA4772"/>
<stop offset="0.5273" stop-color="#AD85A8"/>
<stop offset="1" stop-color="#6ADFF6"/>
</linearGradient>
</defs>
</svg>
