<svg width="37" height="28" viewBox="0 0 37 28" fill="none" xmlns="http://www.w3.org/2000/svg">
<mask id="mask0" style="mask-type:alpha" maskUnits="userSpaceOnUse" x="0" y="0" width="37" height="28">
<path fill-rule="evenodd" clip-rule="evenodd" d="M2.46667 4.13457C3.14782 4.13457 3.7 3.58239 3.7 2.90124C3.7 2.22009 3.14782 1.6679 2.46667 1.6679C1.78552 1.6679 1.23333 2.22009 1.23333 2.90124C1.23333 3.58239 1.78552 4.13457 2.46667 4.13457ZM2.46667 5.36791C3.82897 5.36791 4.93333 4.26354 4.93333 2.90124C4.93333 1.53894 3.82897 0.43457 2.46667 0.43457C1.10436 0.43457 0 1.53894 0 2.90124C0 4.26354 1.10436 5.36791 2.46667 5.36791Z" fill="#C4C4C4"/>
<path fill-rule="evenodd" clip-rule="evenodd" d="M2.46667 11.533C3.14782 11.533 3.7 10.9808 3.7 10.2997C3.7 9.61852 3.14782 9.06634 2.46667 9.06634C1.78552 9.06634 1.23333 9.61852 1.23333 10.2997C1.23333 10.9808 1.78552 11.533 2.46667 11.533ZM2.46667 12.7663C3.82897 12.7663 4.93333 11.662 4.93333 10.2997C4.93333 8.93737 3.82897 7.83301 2.46667 7.83301C1.10436 7.83301 0 8.93737 0 10.2997C0 11.662 1.10436 12.7663 2.46667 12.7663Z" fill="#C4C4C4"/>
<path fill-rule="evenodd" clip-rule="evenodd" d="M2.46667 18.9334C3.14782 18.9334 3.7 18.3812 3.7 17.7001C3.7 17.0189 3.14782 16.4667 2.46667 16.4667C1.78552 16.4667 1.23333 17.0189 1.23333 17.7001C1.23333 18.3812 1.78552 18.9334 2.46667 18.9334ZM2.46667 20.1667C3.82897 20.1667 4.93333 19.0624 4.93333 17.7001C4.93333 16.3378 3.82897 15.2334 2.46667 15.2334C1.10436 15.2334 0 16.3378 0 17.7001C0 19.0624 1.10436 20.1667 2.46667 20.1667Z" fill="#C4C4C4"/>
<path fill-rule="evenodd" clip-rule="evenodd" d="M2.46667 26.3338C3.14782 26.3338 3.7 25.7816 3.7 25.1005C3.7 24.4193 3.14782 23.8671 2.46667 23.8671C1.78552 23.8671 1.23333 24.4193 1.23333 25.1005C1.23333 25.7816 1.78552 26.3338 2.46667 26.3338ZM2.46667 27.5671C3.82897 27.5671 4.93333 26.4628 4.93333 25.1005C4.93333 23.7382 3.82897 22.6338 2.46667 22.6338C1.10436 22.6338 0 23.7382 0 25.1005C0 26.4628 1.10436 27.5671 2.46667 27.5671Z" fill="#C4C4C4"/>
<path fill-rule="evenodd" clip-rule="evenodd" d="M34.5331 4.13359C35.2142 4.13359 35.7664 3.58141 35.7664 2.90026C35.7664 2.21911 35.2142 1.66693 34.5331 1.66693C33.8519 1.66693 33.2997 2.21911 33.2997 2.90026C33.2997 3.58141 33.8519 4.13359 34.5331 4.13359ZM34.5331 5.36693C35.8954 5.36693 36.9997 4.26256 36.9997 2.90026C36.9997 1.53796 35.8954 0.433594 34.5331 0.433594C33.1708 0.433594 32.0664 1.53796 32.0664 2.90026C32.0664 4.26256 33.1708 5.36693 34.5331 5.36693Z" fill="#C4C4C4"/>
<path fill-rule="evenodd" clip-rule="evenodd" d="M34.5331 11.533C35.2142 11.533 35.7664 10.9808 35.7664 10.2997C35.7664 9.61852 35.2142 9.06634 34.5331 9.06634C33.8519 9.06634 33.2997 9.61852 33.2997 10.2997C33.2997 10.9808 33.8519 11.533 34.5331 11.533ZM34.5331 12.7663C35.8954 12.7663 36.9997 11.662 36.9997 10.2997C36.9997 8.93737 35.8954 7.83301 34.5331 7.83301C33.1708 7.83301 32.0664 8.93737 32.0664 10.2997C32.0664 11.662 33.1708 12.7663 34.5331 12.7663Z" fill="#C4C4C4"/>
<path fill-rule="evenodd" clip-rule="evenodd" d="M34.5331 18.9334C35.2142 18.9334 35.7664 18.3812 35.7664 17.7001C35.7664 17.0189 35.2142 16.4667 34.5331 16.4667C33.8519 16.4667 33.2997 17.0189 33.2997 17.7001C33.2997 18.3812 33.8519 18.9334 34.5331 18.9334ZM34.5331 20.1667C35.8954 20.1667 36.9997 19.0624 36.9997 17.7001C36.9997 16.3378 35.8954 15.2334 34.5331 15.2334C33.1708 15.2334 32.0664 16.3378 32.0664 17.7001C32.0664 19.0624 33.1708 20.1667 34.5331 20.1667Z" fill="#C4C4C4"/>
<path fill-rule="evenodd" clip-rule="evenodd" d="M34.5331 26.3338C35.2142 26.3338 35.7664 25.7816 35.7664 25.1005C35.7664 24.4193 35.2142 23.8671 34.5331 23.8671C33.8519 23.8671 33.2997 24.4193 33.2997 25.1005C33.2997 25.7816 33.8519 26.3338 34.5331 26.3338ZM34.5331 27.5671C35.8954 27.5671 36.9997 26.4628 36.9997 25.1005C36.9997 23.7382 35.8954 22.6338 34.5331 22.6338C33.1708 22.6338 32.0664 23.7382 32.0664 25.1005C32.0664 26.4628 33.1708 27.5671 34.5331 27.5671Z" fill="#C4C4C4"/>
<path fill-rule="evenodd" clip-rule="evenodd" d="M33.2992 4.13366H3.69922V1.66699H33.2992V4.13366Z" fill="#C4C4C4"/>
<path fill-rule="evenodd" clip-rule="evenodd" d="M33.2992 11.5331H3.69922V9.06641H33.2992V11.5331Z" fill="#C4C4C4"/>
<path fill-rule="evenodd" clip-rule="evenodd" d="M33.2992 18.9335H3.69922V16.4668H33.2992V18.9335Z" fill="#C4C4C4"/>
<path fill-rule="evenodd" clip-rule="evenodd" d="M33.2992 26.3339H3.69922V23.8672H33.2992V26.3339Z" fill="#C4C4C4"/>
</mask>
<g mask="url(#mask0)">
<rect y="0.433594" width="37" height="28.3667" fill="url(#paint0_linear)"/>
</g>
<defs>
<linearGradient id="paint0_linear" x1="17.5071" y1="23.27" x2="28.3074" y2="-0.630146" gradientUnits="userSpaceOnUse">
<stop stop-color="#91AAFF"/>
<stop offset="1" stop-color="#00E4FF"/>
</linearGradient>
</defs>
</svg>
