<svg width="10" height="8" viewBox="0 0 10 8" fill="none" xmlns="http://www.w3.org/2000/svg">
<path d="M0.0566463 0.285875C0.0145731 0.372153 -0.00467684 0.469024 0.000961279 0.566089C0.0065994 0.663154 0.0369119 0.756748 0.0886478 0.836827L4.58888 7.77039C4.6349 7.84124 4.69633 7.89913 4.76791 7.93912C4.8395 7.97911 4.9191 8 4.99991 8C5.08071 8 5.16031 7.97911 5.2319 7.93912C5.30348 7.89913 5.36491 7.84124 5.41093 7.77039L9.91116 0.836827C9.96307 0.756811 9.99347 0.663173 9.99906 0.566052C10.0047 0.468932 9.98523 0.37203 9.9429 0.285838C9.90056 0.199647 9.83693 0.127451 9.75889 0.0770675C9.68084 0.026684 9.59137 3.28276e-05 9.50014 -1.46049e-08L0.499669 -4.08028e-07C0.408396 -1.64557e-05 0.318859 0.0266154 0.240765 0.0770086C0.16267 0.127402 0.0989971 0.199634 0.0566463 0.285875Z" fill="black"/>
</svg>
